<svg width="250" height="200" viewBox="0 0 250 200" fill="none" xmlns="http://www.w3.org/2000/svg">
<rect width="250" height="200" fill="#312E38"/>
<path d="M64.0285 157.761V156.892H67.6198V157.761L66.5005 157.953V161.395H71.3485V157.953L70.2292 157.761V156.892H73.8205V157.761L72.7012 157.953V165.802L73.8205 165.994V166.856H70.2292V165.994L71.3485 165.802V162.456H66.5005V165.802L67.6198 165.994V166.856H64.0285V165.994L65.1478 165.802V157.953L64.0285 157.761Z" fill="#999591"/>
<path d="M79.8083 166.856C79.7671 166.656 79.7351 166.475 79.7122 166.316C79.6893 166.156 79.6733 165.996 79.6641 165.837C79.4032 166.17 79.0759 166.448 78.6822 166.671C78.2931 166.89 77.8765 167 77.4324 167C76.6588 167 76.0705 166.813 75.6677 166.439C75.2648 166.06 75.0634 165.529 75.0634 164.844C75.0634 164.142 75.3472 163.601 75.9149 163.222C76.4871 162.839 77.2699 162.647 78.2633 162.647H79.6573V161.785C79.6573 161.352 79.5199 161.009 79.2453 160.759C78.9706 160.503 78.5883 160.375 78.0985 160.375C77.7598 160.375 77.4599 160.419 77.199 160.505C76.9426 160.592 76.7343 160.711 76.5741 160.861L76.4299 161.641H75.3861V160.204C75.7249 159.935 76.1346 159.721 76.6153 159.561C77.096 159.397 77.6178 159.315 78.1809 159.315C79.0232 159.315 79.7053 159.529 80.2272 159.958C80.7491 160.387 81.01 161 81.01 161.799V165.364C81.01 165.46 81.01 165.554 81.01 165.645C81.0146 165.736 81.0215 165.827 81.0306 165.919L81.58 165.994V166.856H79.8083ZM77.6316 165.871C78.0802 165.871 78.4899 165.764 78.8607 165.549C79.2315 165.335 79.497 165.077 79.6573 164.776V163.558H78.2152C77.6613 163.558 77.2219 163.685 76.8968 163.941C76.5764 164.196 76.4162 164.507 76.4162 164.872C76.4162 165.196 76.5169 165.444 76.7183 165.618C76.9197 165.786 77.2241 165.871 77.6316 165.871Z" fill="#999591"/>
<path d="M82.7061 165.994L83.8254 165.802V160.512L82.7061 160.321V159.451H85.1782V165.802L86.2975 165.994V166.856H82.7061V165.994ZM85.1782 157.556H83.8254V156.18H85.1782V157.556Z" fill="#999591"/>
<path d="M87.3343 160.321V159.451H89.6622L89.7926 160.526C90.0032 160.147 90.2619 159.851 90.5686 159.636C90.8799 159.422 91.2347 159.315 91.6329 159.315C91.7382 159.315 91.8458 159.324 91.9557 159.342C92.0701 159.356 92.1571 159.372 92.2166 159.39L92.0381 160.642L91.269 160.601C90.9119 160.601 90.6121 160.686 90.3695 160.854C90.1268 161.019 89.9391 161.251 89.8064 161.552V165.802L90.9257 165.994V166.856H87.3343V165.994L88.4536 165.802V160.512L87.3343 160.321Z" fill="#999591"/>
<path d="M96.3573 165.946C96.8059 165.946 97.1996 165.809 97.5384 165.535C97.8817 165.257 98.0534 164.917 98.0534 164.516H99.2688L99.2825 164.557C99.3054 165.196 99.0193 165.764 98.4242 166.261C97.8337 166.754 97.1447 167 96.3573 167C95.2769 167 94.4506 166.649 93.8784 165.946C93.3107 165.243 93.0269 164.361 93.0269 163.298V163.01C93.0269 161.956 93.313 161.078 93.8853 160.375C94.4575 159.668 95.2815 159.315 96.3573 159.315C96.9524 159.315 97.4857 159.413 97.9573 159.609C98.4333 159.805 98.827 160.074 99.1383 160.416L99.2001 162.059H98.1221L97.8268 160.895C97.6666 160.74 97.4606 160.615 97.2088 160.519C96.957 160.423 96.6732 160.375 96.3573 160.375C95.6477 160.375 95.1396 160.631 94.8329 161.142C94.5307 161.648 94.3797 162.271 94.3797 163.01V163.298C94.3797 164.055 94.5307 164.687 94.8329 165.193C95.135 165.695 95.6431 165.946 96.3573 165.946Z" fill="#999591"/>
<path d="M105.916 165.761C105.682 166.158 105.38 166.464 105.009 166.678C104.643 166.893 104.22 167 103.739 167C102.933 167 102.304 166.742 101.851 166.227C101.398 165.711 101.171 164.908 101.171 163.818V160.512L100.319 160.321V159.451H102.524V163.831C102.524 164.621 102.64 165.164 102.874 165.46C103.107 165.757 103.471 165.905 103.966 165.905C104.446 165.905 104.842 165.809 105.154 165.618C105.47 165.421 105.708 165.145 105.868 164.789V160.512L104.872 160.321V159.451H107.22V165.802L108.072 165.994V166.856H106.005L105.916 165.761Z" fill="#999591"/>
<path d="M111.505 157.665V159.451H112.913V160.451H111.505V164.947C111.505 165.294 111.576 165.538 111.718 165.679C111.865 165.821 112.057 165.891 112.295 165.891C112.414 165.891 112.547 165.882 112.693 165.864C112.844 165.841 112.97 165.818 113.071 165.795L113.256 166.719C113.128 166.802 112.941 166.868 112.693 166.918C112.446 166.973 112.199 167 111.952 167C111.402 167 110.965 166.836 110.64 166.507C110.315 166.174 110.153 165.654 110.153 164.947V160.451H108.978V159.451H110.153V157.665H111.505Z" fill="#999591"/>
<path d="M119.979 161.778H118.963L118.743 160.889C118.578 160.733 118.37 160.61 118.118 160.519C117.871 160.423 117.589 160.375 117.274 160.375C116.793 160.375 116.436 160.48 116.202 160.69C115.969 160.9 115.852 161.153 115.852 161.45C115.852 161.742 115.955 161.972 116.161 162.141C116.367 162.31 116.786 162.46 117.418 162.593C118.356 162.793 119.054 163.067 119.512 163.414C119.97 163.756 120.199 164.217 120.199 164.796C120.199 165.453 119.931 165.985 119.395 166.391C118.864 166.797 118.168 167 117.308 167C116.745 167 116.239 166.936 115.79 166.808C115.342 166.676 114.941 166.487 114.589 166.24L114.582 164.55H115.598L115.852 165.542C116.008 165.684 116.218 165.786 116.484 165.85C116.754 165.914 117.029 165.946 117.308 165.946C117.789 165.946 118.164 165.85 118.434 165.659C118.709 165.462 118.846 165.207 118.846 164.892C118.846 164.596 118.732 164.351 118.503 164.16C118.278 163.968 117.85 163.802 117.219 163.66C116.317 163.464 115.637 163.197 115.179 162.86C114.721 162.522 114.492 162.066 114.492 161.491C114.492 160.889 114.749 160.375 115.262 159.951C115.779 159.527 116.45 159.315 117.274 159.315C117.837 159.315 118.342 159.388 118.791 159.534C119.24 159.68 119.613 159.883 119.91 160.143L119.979 161.778Z" fill="#999591"/>
<path d="M124.861 164.174C124.861 163.617 125.022 163.131 125.342 162.716C125.667 162.296 126.15 161.876 126.791 161.457C126.434 161.005 126.168 160.603 125.994 160.252C125.82 159.896 125.733 159.531 125.733 159.157C125.733 158.386 125.955 157.793 126.399 157.378C126.848 156.958 127.464 156.748 128.247 156.748C128.97 156.748 129.558 156.956 130.011 157.371C130.465 157.786 130.691 158.286 130.691 158.87C130.691 159.317 130.57 159.705 130.327 160.033C130.089 160.357 129.734 160.69 129.263 161.032L128.514 161.58L130.849 164.379C131.037 164.082 131.183 163.754 131.289 163.393C131.394 163.033 131.447 162.652 131.447 162.25H132.655C132.655 162.848 132.566 163.402 132.387 163.913C132.209 164.424 131.95 164.883 131.611 165.289L132.882 166.822L132.868 166.856H131.295L130.712 166.158C130.346 166.432 129.94 166.642 129.496 166.788C129.052 166.929 128.592 167 128.116 167C127.123 167 126.331 166.738 125.74 166.213C125.154 165.688 124.861 165.008 124.861 164.174ZM128.116 165.946C128.446 165.946 128.771 165.891 129.091 165.782C129.412 165.668 129.714 165.506 129.998 165.296L127.519 162.319L127.244 162.517C126.828 162.828 126.551 163.124 126.413 163.407C126.28 163.69 126.214 163.945 126.214 164.174C126.214 164.689 126.377 165.113 126.702 165.446C127.027 165.78 127.498 165.946 128.116 165.946ZM127.086 159.143C127.086 159.385 127.148 159.638 127.272 159.903C127.395 160.163 127.581 160.448 127.828 160.759L128.775 160.108C129.036 159.935 129.213 159.748 129.304 159.547C129.4 159.342 129.448 159.116 129.448 158.87C129.448 158.591 129.336 158.345 129.112 158.131C128.892 157.916 128.604 157.809 128.247 157.809C127.876 157.809 127.59 157.939 127.388 158.199C127.187 158.455 127.086 158.769 127.086 159.143Z" fill="#999591"/>
<path d="M144.439 159.835H143.415L143.161 158.411C142.955 158.238 142.681 158.094 142.337 157.98C141.994 157.866 141.596 157.809 141.142 157.809C140.424 157.809 139.872 157.962 139.488 158.267C139.103 158.569 138.911 158.963 138.911 159.451C138.911 159.885 139.105 160.248 139.494 160.54C139.888 160.827 140.522 161.08 141.397 161.299C142.449 161.559 143.248 161.943 143.793 162.449C144.342 162.955 144.617 163.583 144.617 164.331C144.617 165.134 144.287 165.78 143.628 166.268C142.974 166.756 142.115 167 141.053 167C140.284 167 139.6 166.875 139 166.624C138.405 166.373 137.92 166.044 137.544 165.638V163.783H138.561L138.821 165.214C139.082 165.428 139.394 165.604 139.755 165.741C140.117 165.878 140.55 165.946 141.053 165.946C141.735 165.946 142.273 165.802 142.667 165.515C143.065 165.227 143.264 164.837 143.264 164.345C143.264 163.888 143.093 163.507 142.749 163.202C142.406 162.891 141.799 162.631 140.93 162.422C139.872 162.171 139.046 161.801 138.451 161.313C137.856 160.825 137.558 160.211 137.558 159.472C137.558 158.692 137.89 158.044 138.554 157.528C139.217 157.008 140.08 156.748 141.142 156.748C141.843 156.748 142.479 156.869 143.051 157.111C143.628 157.348 144.091 157.638 144.439 157.98V159.835Z" fill="#999591"/>
<path d="M145.709 165.994L146.828 165.802V157.241L145.709 157.049V156.18H148.181V160.437C148.437 160.081 148.751 159.805 149.122 159.609C149.492 159.413 149.904 159.315 150.358 159.315C151.154 159.315 151.772 159.552 152.212 160.026C152.651 160.501 152.871 161.231 152.871 162.216V165.802L153.99 165.994V166.856H150.399V165.994L151.518 165.802V162.203C151.518 161.591 151.385 161.14 151.12 160.848C150.859 160.556 150.468 160.41 149.946 160.41C149.575 160.41 149.236 160.498 148.929 160.676C148.627 160.85 148.378 161.087 148.181 161.388V165.802L149.3 165.994V166.856H145.709V165.994Z" fill="#999591"/>
<path d="M159.82 166.856C159.779 166.656 159.747 166.475 159.724 166.316C159.701 166.156 159.685 165.996 159.676 165.837C159.415 166.17 159.088 166.448 158.694 166.671C158.305 166.89 157.888 167 157.444 167C156.671 167 156.082 166.813 155.679 166.439C155.277 166.06 155.075 165.529 155.075 164.844C155.075 164.142 155.359 163.601 155.927 163.222C156.499 162.839 157.282 162.647 158.275 162.647H159.669V161.785C159.669 161.352 159.532 161.009 159.257 160.759C158.982 160.503 158.6 160.375 158.11 160.375C157.772 160.375 157.472 160.419 157.211 160.505C156.954 160.592 156.746 160.711 156.586 160.861L156.442 161.641H155.398V160.204C155.737 159.935 156.146 159.721 156.627 159.561C157.108 159.397 157.63 159.315 158.193 159.315C159.035 159.315 159.717 159.529 160.239 159.958C160.761 160.387 161.022 161 161.022 161.799V165.364C161.022 165.46 161.022 165.554 161.022 165.645C161.026 165.736 161.033 165.827 161.042 165.919L161.592 165.994V166.856H159.82ZM157.643 165.871C158.092 165.871 158.502 165.764 158.872 165.549C159.243 165.335 159.509 165.077 159.669 164.776V163.558H158.227C157.673 163.558 157.234 163.685 156.909 163.941C156.588 164.196 156.428 164.507 156.428 164.872C156.428 165.196 156.529 165.444 156.73 165.618C156.931 165.786 157.236 165.871 157.643 165.871Z" fill="#999591"/>
<path d="M165.156 160.321L164.263 160.457L165.794 164.673L165.918 165.207H165.959L166.089 164.673L167.573 160.457L166.673 160.321V159.451H169.543V160.321L168.932 160.423L166.44 166.856H165.417L162.896 160.423L162.285 160.321V159.451H165.156V160.321Z" fill="#999591"/>
<path d="M173.76 167C172.725 167 171.901 166.658 171.288 165.973C170.679 165.285 170.374 164.393 170.374 163.298V162.996C170.374 161.943 170.688 161.067 171.315 160.368C171.947 159.666 172.693 159.315 173.554 159.315C174.552 159.315 175.307 159.616 175.82 160.218C176.337 160.82 176.596 161.623 176.596 162.627V163.469H171.775L171.755 163.503C171.768 164.215 171.949 164.801 172.297 165.262C172.645 165.718 173.133 165.946 173.76 165.946C174.217 165.946 174.618 165.882 174.961 165.754C175.309 165.622 175.609 165.442 175.861 165.214L176.39 166.09C176.124 166.345 175.772 166.562 175.332 166.74C174.897 166.913 174.373 167 173.76 167ZM173.554 160.375C173.1 160.375 172.714 160.567 172.393 160.95C172.073 161.329 171.876 161.806 171.803 162.381L171.816 162.415H175.243V162.237C175.243 161.708 175.101 161.265 174.817 160.909C174.533 160.553 174.112 160.375 173.554 160.375Z" fill="#999591"/>
<path d="M183.62 161.778H182.604L182.384 160.889C182.22 160.733 182.011 160.61 181.759 160.519C181.512 160.423 181.231 160.375 180.915 160.375C180.434 160.375 180.077 160.48 179.844 160.69C179.61 160.9 179.493 161.153 179.493 161.45C179.493 161.742 179.596 161.972 179.802 162.141C180.008 162.31 180.427 162.46 181.059 162.593C181.998 162.793 182.696 163.067 183.153 163.414C183.611 163.756 183.84 164.217 183.84 164.796C183.84 165.453 183.572 165.985 183.037 166.391C182.506 166.797 181.81 167 180.949 167C180.386 167 179.88 166.936 179.432 166.808C178.983 166.676 178.582 166.487 178.23 166.24L178.223 164.55H179.239L179.493 165.542C179.649 165.684 179.86 165.786 180.125 165.85C180.395 165.914 180.67 165.946 180.949 165.946C181.43 165.946 181.805 165.85 182.075 165.659C182.35 165.462 182.487 165.207 182.487 164.892C182.487 164.596 182.373 164.351 182.144 164.16C181.92 163.968 181.492 163.802 180.86 163.66C179.958 163.464 179.278 163.197 178.821 162.86C178.363 162.522 178.134 162.066 178.134 161.491C178.134 160.889 178.39 160.375 178.903 159.951C179.42 159.527 180.091 159.315 180.915 159.315C181.478 159.315 181.984 159.388 182.432 159.534C182.881 159.68 183.254 159.883 183.552 160.143L183.62 161.778Z" fill="#999591"/>
<path d="M92.1411 42.1021L92.8827 41.9994L96.3779 33H97.5384L100.972 41.9994L101.706 42.1021V42.9644H98.8362V42.1021L99.5916 41.972L98.9324 40.1379H94.929L94.2492 41.972L95.0046 42.1021V42.9644H92.1411V42.1021ZM95.3479 39.0087H98.5204L96.9685 34.7314H96.9273L95.3479 39.0087Z" fill="#999591"/>
<path d="M104.46 36.4287L103.609 36.5792L104.577 40.268L104.735 41.1645H104.776L104.968 40.268L106.451 35.5595H107.536L109.027 40.268L109.239 41.2671H109.281L109.48 40.268L110.393 36.5792L109.528 36.4287V35.5595H112.357V36.4287L111.711 36.5245L109.837 42.9644H108.745L107.303 38.4544L106.994 37.2088L106.953 37.2157L106.664 38.4544L105.25 42.9644H104.158L102.283 36.5245L101.631 36.4287V35.5595H104.46V36.4287Z" fill="#999591"/>
<path d="M116.848 43.1081C115.813 43.1081 114.989 42.7659 114.376 42.0815C113.767 41.3926 113.462 40.5007 113.462 39.4057V39.1045C113.462 38.0506 113.776 37.1746 114.403 36.4766C115.035 35.774 115.781 35.4227 116.642 35.4227C117.64 35.4227 118.395 35.7238 118.908 36.326C119.425 36.9283 119.684 37.7312 119.684 38.735V39.5768H114.863L114.843 39.611C114.856 40.3227 115.037 40.909 115.385 41.3698C115.733 41.826 116.221 42.0542 116.848 42.0542C117.306 42.0542 117.706 41.9903 118.049 41.8625C118.397 41.7302 118.697 41.55 118.949 41.3219L119.478 42.1979C119.212 42.4534 118.86 42.6701 118.42 42.848C117.985 43.0214 117.461 43.1081 116.848 43.1081ZM116.642 36.4834C116.189 36.4834 115.802 36.675 115.481 37.0583C115.161 37.437 114.964 37.9137 114.891 38.4886L114.905 38.5228H118.331V38.3449C118.331 37.8157 118.189 37.3731 117.905 37.0172C117.621 36.6614 117.2 36.4834 116.642 36.4834Z" fill="#999591"/>
<path d="M126.708 37.8864H125.692L125.472 36.9967C125.308 36.8416 125.099 36.7184 124.848 36.6271C124.6 36.5313 124.319 36.4834 124.003 36.4834C123.522 36.4834 123.165 36.5884 122.932 36.7982C122.698 37.0081 122.582 37.2613 122.582 37.5579C122.582 37.8499 122.685 38.0803 122.891 38.2491C123.097 38.4179 123.515 38.5685 124.147 38.7008C125.086 38.9015 125.784 39.1753 126.242 39.522C126.699 39.8642 126.928 40.325 126.928 40.9044C126.928 41.5614 126.66 42.0929 126.125 42.499C125.594 42.9051 124.898 43.1081 124.037 43.1081C123.474 43.1081 122.968 43.0442 122.52 42.9165C122.071 42.7842 121.671 42.5948 121.318 42.3484L121.311 40.6581H122.327L122.582 41.6504C122.737 41.7918 122.948 41.8945 123.213 41.9584C123.483 42.0222 123.758 42.0542 124.037 42.0542C124.518 42.0542 124.893 41.9584 125.163 41.7667C125.438 41.5705 125.575 41.315 125.575 41.0002C125.575 40.7037 125.461 40.4596 125.232 40.268C125.008 40.0763 124.58 39.9098 123.948 39.7684C123.046 39.5722 122.366 39.3053 121.909 38.9677C121.451 38.6301 121.222 38.1738 121.222 37.5989C121.222 36.9967 121.478 36.4834 121.991 36.0591C122.508 35.6348 123.179 35.4227 124.003 35.4227C124.566 35.4227 125.072 35.4957 125.521 35.6416C125.969 35.7876 126.342 35.9907 126.64 36.2507L126.708 37.8864Z" fill="#999591"/>
<path d="M128.199 39.1935C128.199 38.0985 128.496 37.1974 129.091 36.4903C129.686 35.7785 130.494 35.4227 131.515 35.4227C132.541 35.4227 133.351 35.7762 133.946 36.4834C134.546 37.1906 134.846 38.094 134.846 39.1935V39.3441C134.846 40.4482 134.548 41.3515 133.953 42.0542C133.358 42.7568 132.55 43.1081 131.529 43.1081C130.499 43.1081 129.686 42.7568 129.091 42.0542C128.496 41.347 128.199 40.4436 128.199 39.3441V39.1935ZM129.551 39.3441C129.551 40.1288 129.716 40.7767 130.046 41.2877C130.38 41.7987 130.874 42.0542 131.529 42.0542C132.17 42.0542 132.657 41.7987 132.992 41.2877C133.326 40.7767 133.493 40.1288 133.493 39.3441V39.1935C133.493 38.4179 133.326 37.7723 132.992 37.2568C132.657 36.7412 132.165 36.4834 131.515 36.4834C130.865 36.4834 130.375 36.7412 130.046 37.2568C129.716 37.7723 129.551 38.4179 129.551 39.1935V39.3441Z" fill="#999591"/>
<path d="M135.821 42.1021L136.94 41.9104V36.6203L135.821 36.4287V35.5595H138.155L138.245 36.5245C138.483 36.1732 138.789 35.9017 139.165 35.7101C139.54 35.5185 139.975 35.4227 140.47 35.4227C140.964 35.4227 141.387 35.5367 141.74 35.7648C142.097 35.993 142.365 36.3351 142.543 36.7914C142.777 36.3716 143.086 36.0386 143.47 35.7922C143.855 35.5458 144.303 35.4227 144.816 35.4227C145.576 35.4227 146.176 35.6827 146.615 36.2028C147.055 36.7184 147.275 37.4963 147.275 38.5365V41.9104L148.394 42.1021V42.9644H144.796V42.1021L145.915 41.9104V38.5228C145.915 37.7928 145.789 37.2773 145.537 36.9762C145.285 36.6705 144.912 36.5176 144.418 36.5176C143.946 36.5176 143.566 36.6842 143.278 37.0172C142.994 37.3457 142.829 37.7609 142.784 38.2628V41.9104L143.903 42.1021V42.9644H140.312V42.1021L141.431 41.9104V38.5228C141.431 37.8293 141.3 37.3229 141.039 37.0035C140.783 36.6796 140.41 36.5176 139.92 36.5176C139.508 36.5176 139.169 36.602 138.904 36.7709C138.638 36.9397 138.435 37.1769 138.293 37.4826V41.9104L139.412 42.1021V42.9644H135.821V42.1021Z" fill="#999591"/>
<path d="M152.706 43.1081C151.672 43.1081 150.848 42.7659 150.234 42.0815C149.625 41.3926 149.321 40.5007 149.321 39.4057V39.1045C149.321 38.0506 149.634 37.1746 150.262 36.4766C150.893 35.774 151.64 35.4227 152.5 35.4227C153.498 35.4227 154.253 35.7238 154.766 36.326C155.283 36.9283 155.542 37.7312 155.542 38.735V39.5768H150.722L150.701 39.611C150.715 40.3227 150.896 40.909 151.244 41.3698C151.591 41.826 152.079 42.0542 152.706 42.0542C153.164 42.0542 153.564 41.9903 153.908 41.8625C154.256 41.7302 154.556 41.55 154.807 41.3219L155.336 42.1979C155.071 42.4534 154.718 42.6701 154.279 42.848C153.844 43.0214 153.32 43.1081 152.706 43.1081ZM152.5 36.4834C152.047 36.4834 151.66 36.675 151.34 37.0583C151.019 37.437 150.822 37.9137 150.749 38.4886L150.763 38.5228H154.189V38.3449C154.189 37.8157 154.047 37.3731 153.764 37.0172C153.48 36.6614 153.059 36.4834 152.5 36.4834Z" fill="#999591"/>
<path d="M239.033 139.073H9V141.075H239.033V139.073Z" fill="#FF9000"/>
<path d="M239.033 58.9825H9V60.9848H239.033V58.9825Z" fill="#FF9000"/>
<path d="M62.2793 97.8023V111.874C62.2793 113.07 62.0356 114.21 61.548 115.294C61.098 116.341 60.4792 117.256 59.6917 118.041C58.9042 118.826 57.9666 119.443 56.8791 119.891C55.829 120.377 54.704 120.62 53.5039 120.62C52.3038 120.62 51.1788 120.396 50.1287 119.947C49.0787 119.499 48.1599 118.901 47.3723 118.153C46.5848 117.368 45.9473 116.471 45.4598 115.462C45.0097 114.416 44.766 113.294 44.7285 112.098V101.727C44.616 100.568 44.0909 99.7271 43.1534 99.2039C43.6784 98.9422 44.2034 98.8114 44.7285 98.8114V85.5805C44.766 84.3845 45.0097 83.2632 45.4598 82.2167C45.9473 81.1702 46.5848 80.2732 47.3723 79.5256C48.1599 78.7408 49.0787 78.1241 50.1287 77.6756C51.1788 77.227 52.3038 77.0028 53.5039 77.0028C54.704 77.0028 55.829 77.2457 56.8791 77.7316C57.9666 78.1801 58.9042 78.7968 59.6917 79.5817C60.4792 80.3666 61.098 81.301 61.548 82.3849C62.0356 83.4314 62.2793 84.5713 62.2793 85.8047C62.2793 86.4401 62.3356 86.9073 62.4481 87.2063C62.5981 87.5053 62.7481 87.7483 62.8981 87.9351C63.0481 88.122 63.1794 88.2902 63.2919 88.4397C63.4419 88.5892 63.5169 88.8321 63.5169 89.1685H60.5917C59.9917 89.0938 59.6917 88.7761 59.6917 88.2155C59.6917 88.7761 59.3917 89.0938 58.7916 89.1685H55.8103C55.8103 88.8321 55.8665 88.5892 55.979 88.4397C56.129 88.2902 56.279 88.122 56.429 87.9351C56.579 87.7483 56.7103 87.5053 56.8228 87.2063C56.9728 86.9073 57.0478 86.4214 57.0478 85.7487V85.6926C57.0478 85.2067 57.0291 84.6274 56.9916 83.9546C56.9541 83.2445 56.8228 82.5717 56.5978 81.9364C56.3728 81.301 56.0165 80.759 55.529 80.3105C55.0415 79.862 54.3664 79.6378 53.5039 79.6378C52.6039 79.6378 51.9101 79.8807 51.4225 80.3666C50.9725 80.8151 50.635 81.357 50.41 81.9924C50.185 82.6278 50.0537 83.3006 50.0162 84.0107C49.9787 84.7208 49.96 85.3188 49.96 85.8047V98.8114C50.485 98.8114 51.01 98.9422 51.535 99.2039C50.5975 99.7271 50.0725 100.568 49.96 101.727V111.874C49.96 112.36 49.9787 112.958 50.0162 113.668C50.0537 114.341 50.185 115.014 50.41 115.687C50.635 116.322 50.9725 116.864 51.4225 117.312C51.9101 117.761 52.6039 117.985 53.5039 117.985C54.4039 117.985 55.079 117.761 55.529 117.312C56.0165 116.864 56.3728 116.322 56.5978 115.687C56.8228 115.014 56.9541 114.341 56.9916 113.668C57.0291 112.958 57.0478 112.36 57.0478 111.874V100.381C56.6353 100.419 56.279 100.587 55.979 100.886C55.7165 101.185 55.5852 101.54 55.5852 101.951V102.007C55.5477 102.568 55.3977 103.054 55.1352 103.465C54.9102 103.838 54.5727 104.175 54.1227 104.474C53.6727 104.735 53.0164 104.866 52.1538 104.866V97.8023H62.2793ZM47.7661 96.1764C47.7661 95.9522 47.7474 95.7279 47.7099 95.5037C47.7099 95.2794 47.7099 95.0739 47.7099 94.887V93.5975C47.6724 92.7753 47.6536 91.9904 47.6536 91.2429C47.6536 90.4954 47.6349 89.7852 47.5974 89.1125C47.5599 88.7761 47.5411 88.4771 47.5411 88.2155C47.5411 87.9164 47.5224 87.6174 47.4849 87.3184C47.4849 87.0568 47.4661 86.8139 47.4286 86.5896C47.4286 86.328 47.4286 86.1037 47.4286 85.9169C47.4286 85.73 47.4099 85.5618 47.3723 85.4123C47.3723 85.2628 47.3723 85.132 47.3723 85.0198V84.7395C47.3348 84.7395 47.3161 84.7582 47.3161 84.7956V85.0198C47.3161 85.132 47.2973 85.2628 47.2598 85.4123C47.2598 85.5618 47.2598 85.73 47.2598 85.9169C47.2598 86.1037 47.2411 86.328 47.2036 86.5896C47.2036 86.8139 47.2036 87.0568 47.2036 87.3184C47.1661 87.6174 47.1473 87.9164 47.1473 88.2155C47.1473 88.4771 47.1286 88.7761 47.0911 89.1125C47.0536 89.7852 47.0348 90.4954 47.0348 91.2429C47.0348 91.9904 47.0161 92.7753 46.9786 93.5975V94.887C46.9786 95.0739 46.9598 95.2794 46.9223 95.5037C46.9223 95.7279 46.9223 95.9522 46.9223 96.1764V101.39C46.9223 101.503 46.9223 101.615 46.9223 101.727C46.9598 101.839 46.9786 101.932 46.9786 102.007V103.913C46.9786 104.324 46.9786 104.735 46.9786 105.147C47.0161 105.52 47.0348 105.894 47.0348 106.268C47.0348 106.679 47.0348 107.071 47.0348 107.445C47.0723 107.782 47.0911 108.099 47.0911 108.398C47.1286 108.735 47.1473 109.052 47.1473 109.351C47.1473 109.65 47.1661 109.931 47.2036 110.192C47.2036 110.491 47.2036 110.753 47.2036 110.977C47.2411 111.201 47.2598 111.407 47.2598 111.594C47.2598 111.781 47.2598 111.949 47.2598 112.098C47.2973 112.248 47.3161 112.379 47.3161 112.491V112.771C47.3161 112.809 47.3348 112.827 47.3723 112.827V112.491C47.3723 112.379 47.3723 112.248 47.3723 112.098C47.4099 111.949 47.4286 111.781 47.4286 111.594C47.4286 111.407 47.4286 111.201 47.4286 110.977C47.4661 110.753 47.4849 110.491 47.4849 110.192C47.5224 109.931 47.5411 109.65 47.5411 109.351C47.5411 109.052 47.5599 108.735 47.5974 108.398C47.5974 108.099 47.5974 107.782 47.5974 107.445C47.6349 107.071 47.6536 106.679 47.6536 106.268C47.6536 105.894 47.6536 105.52 47.6536 105.147C47.6911 104.735 47.7099 104.324 47.7099 103.913V102.68C47.7099 102.381 47.7286 102.157 47.7661 102.007V96.1764ZM60.0292 104.306C59.9917 103.932 59.973 103.596 59.973 103.297C59.973 102.96 59.9542 102.642 59.9167 102.343C59.8792 101.783 59.8229 101.316 59.7479 100.942C59.7479 100.867 59.7292 100.792 59.6917 100.718C59.6917 100.643 59.6917 100.587 59.6917 100.549V100.381L59.6354 100.437V100.549C59.6354 100.587 59.6167 100.643 59.5792 100.718C59.5792 100.792 59.5792 100.867 59.5792 100.942C59.5042 101.316 59.4479 101.783 59.4104 102.343C59.3729 102.642 59.3542 102.96 59.3542 103.297C59.3542 103.596 59.3354 103.932 59.2979 104.306V104.866C59.2979 104.978 59.2792 105.091 59.2417 105.203C59.2417 105.277 59.2417 105.352 59.2417 105.427V107.782C59.2417 107.894 59.2604 107.987 59.2979 108.062V108.903C59.2979 109.09 59.2979 109.258 59.2979 109.407C59.3354 109.557 59.3542 109.725 59.3542 109.912C59.3542 110.099 59.3542 110.267 59.3542 110.417C59.3917 110.566 59.4104 110.716 59.4104 110.865C59.4479 111.015 59.4667 111.164 59.4667 111.314C59.4667 111.426 59.4854 111.538 59.5229 111.65C59.5229 111.762 59.5229 111.874 59.5229 111.986C59.5604 112.098 59.5792 112.192 59.5792 112.267C59.5792 112.341 59.5792 112.416 59.5792 112.491C59.6167 112.566 59.6354 112.622 59.6354 112.659V112.771C59.6354 112.809 59.6542 112.827 59.6917 112.827V112.659C59.6917 112.622 59.6917 112.566 59.6917 112.491C59.7292 112.416 59.7479 112.341 59.7479 112.267C59.7479 112.192 59.7479 112.098 59.7479 111.986C59.7854 111.874 59.8042 111.762 59.8042 111.65C59.8417 111.538 59.8604 111.426 59.8604 111.314C59.8604 111.164 59.8792 111.015 59.9167 110.865C59.9167 110.716 59.9167 110.566 59.9167 110.417C59.9542 110.267 59.973 110.099 59.973 109.912C59.973 109.725 59.973 109.557 59.973 109.407C60.0105 109.258 60.0292 109.09 60.0292 108.903V108.342C60.0292 108.193 60.048 108.099 60.0855 108.062V105.427C60.0855 105.352 60.0667 105.277 60.0292 105.203C60.0292 105.091 60.0292 104.978 60.0292 104.866V104.306Z" fill="#F4EDE8"/>
<path d="M82.7149 98.8675C83.3524 98.8675 83.8774 98.9983 84.2899 99.2599C83.8774 99.5216 83.5212 99.8766 83.2211 100.325C82.9586 100.774 82.7899 101.26 82.7149 101.783V110.248C82.6774 111.444 82.4148 112.566 81.9273 113.612C81.4773 114.621 80.8585 115.518 80.071 116.303C79.2835 117.051 78.3647 117.649 77.3146 118.097C76.2646 118.546 75.1395 118.77 73.9394 118.77C72.7394 118.77 71.6143 118.546 70.5643 118.097C69.5142 117.649 68.5954 117.051 67.8079 116.303C67.0204 115.518 66.3828 114.621 65.8953 113.612C65.4453 112.566 65.2015 111.444 65.164 110.248V101.783C65.0515 100.624 64.5265 99.7832 63.5889 99.2599C64.0015 98.9983 64.5265 98.8675 65.164 98.8675V88.0473C65.2015 86.8886 65.4453 85.786 65.8953 84.7395C66.3828 83.693 67.0204 82.796 67.8079 82.0485C68.5954 81.2636 69.5142 80.6469 70.5643 80.1984C71.6143 79.7499 72.7394 79.5256 73.9394 79.5256C75.1395 79.5256 76.2646 79.7499 77.3146 80.1984C78.3647 80.6469 79.2835 81.2636 80.071 82.0485C80.8585 82.796 81.4773 83.693 81.9273 84.7395C82.4148 85.786 82.6774 86.8886 82.7149 88.0473V98.8675ZM68.2017 96.8492C68.2017 96.6623 68.1829 96.4941 68.1454 96.3446C68.1454 96.1578 68.1454 95.9709 68.1454 95.784V94.7188C68.1079 94.0087 68.0892 93.3359 68.0892 92.7005C68.0892 92.0651 68.0704 91.4671 68.0329 90.9065C67.9954 90.6449 67.9767 90.3832 67.9767 90.1216C67.9767 89.86 67.9579 89.617 67.9204 89.3928C67.9204 89.1685 67.9017 88.963 67.8642 88.7761C67.8642 88.5892 67.8642 88.421 67.8642 88.2715C67.8642 88.0846 67.8454 87.9351 67.8079 87.823C67.8079 87.6735 67.8079 87.5614 67.8079 87.4866V87.2063C67.7704 87.2063 67.7516 87.225 67.7516 87.2624V87.4866C67.7516 87.5614 67.7329 87.6735 67.6954 87.823C67.6954 87.9351 67.6954 88.0846 67.6954 88.2715C67.6954 88.421 67.6766 88.5892 67.6391 88.7761C67.6391 88.963 67.6391 89.1685 67.6391 89.3928C67.6016 89.617 67.5829 89.86 67.5829 90.1216C67.5829 90.3832 67.5641 90.6449 67.5266 90.9065C67.4891 91.4671 67.4704 92.0651 67.4704 92.7005C67.4704 93.3359 67.4516 94.0087 67.4141 94.7188V95.784C67.4141 95.9709 67.3954 96.1578 67.3579 96.3446C67.3579 96.4941 67.3579 96.6623 67.3579 96.8492V101.278C67.3579 101.54 67.3766 101.727 67.4141 101.839V103.465C67.4141 103.801 67.4141 104.137 67.4141 104.474C67.4516 104.81 67.4704 105.128 67.4704 105.427C67.4704 105.763 67.4704 106.081 67.4704 106.38C67.5079 106.642 67.5266 106.922 67.5266 107.221C67.5641 107.52 67.5829 107.8 67.5829 108.062C67.5829 108.286 67.6016 108.51 67.6391 108.735C67.6391 108.959 67.6391 109.164 67.6391 109.351C67.6766 109.538 67.6954 109.725 67.6954 109.912C67.6954 110.099 67.6954 110.267 67.6954 110.417C67.7329 110.529 67.7516 110.622 67.7516 110.697V110.865C67.7516 110.902 67.7704 110.921 67.8079 110.921V110.697C67.8079 110.622 67.8079 110.529 67.8079 110.417C67.8454 110.267 67.8642 110.099 67.8642 109.912C67.8642 109.725 67.8642 109.538 67.8642 109.351C67.9017 109.164 67.9204 108.959 67.9204 108.735C67.9579 108.51 67.9767 108.286 67.9767 108.062C67.9767 107.8 67.9954 107.52 68.0329 107.221C68.0329 106.922 68.0329 106.642 68.0329 106.38C68.0704 106.081 68.0892 105.763 68.0892 105.427C68.0892 105.128 68.0892 104.81 68.0892 104.474C68.1267 104.137 68.1454 103.801 68.1454 103.465V101.839C68.1829 101.727 68.2017 101.54 68.2017 101.278V96.8492ZM77.4834 88.2715C77.4834 87.7856 77.4646 87.1876 77.4271 86.4775C77.3896 85.7674 77.2584 85.0946 77.0333 84.4592C76.8083 83.8238 76.4521 83.2819 75.9645 82.8334C75.5145 82.3475 74.8395 82.1046 73.9394 82.1046C73.0394 82.1046 72.3456 82.3475 71.8581 82.8334C71.4081 83.2819 71.0706 83.8238 70.8455 84.4592C70.6205 85.0946 70.4893 85.7674 70.4518 86.4775C70.4143 87.1876 70.3955 87.7856 70.3955 88.2715V98.8675C71.0331 98.8675 71.5581 98.9983 71.9706 99.2599C71.0331 99.7832 70.508 100.624 70.3955 101.783V110.024C70.3955 110.51 70.4143 111.108 70.4518 111.818C70.4893 112.491 70.6205 113.164 70.8455 113.836C71.0706 114.472 71.4081 115.014 71.8581 115.462C72.3456 115.911 73.0394 116.135 73.9394 116.135C74.8395 116.135 75.5145 115.911 75.9645 115.462C76.4521 115.014 76.8083 114.472 77.0333 113.836C77.2584 113.164 77.3896 112.491 77.4271 111.818C77.4646 111.108 77.4834 110.51 77.4834 110.024V101.783C77.4084 100.662 76.8833 99.8206 75.9083 99.2599C76.3208 98.9983 76.8458 98.8675 77.4834 98.8675V88.2715ZM80.521 96.8492C80.521 96.6623 80.521 96.4941 80.521 96.3446C80.521 96.1578 80.5023 95.9709 80.4648 95.784V94.7188C80.4648 94.0087 80.446 93.3359 80.4085 92.7005C80.4085 92.0651 80.3898 91.4671 80.3522 90.9065C80.3147 90.6449 80.296 90.3832 80.296 90.1216C80.296 89.86 80.2772 89.617 80.2397 89.3928C80.2397 89.1685 80.221 88.963 80.1835 88.7761C80.1835 88.5892 80.1835 88.421 80.1835 88.2715C80.1835 88.0846 80.1647 87.9351 80.1272 87.823C80.1272 87.6735 80.1272 87.5614 80.1272 87.4866V87.2063C80.0897 87.2063 80.071 87.225 80.071 87.2624V87.4866C80.071 87.5614 80.071 87.6735 80.071 87.823C80.071 87.9351 80.0522 88.0846 80.0147 88.2715C80.0147 88.421 79.996 88.5892 79.9585 88.7761C79.9585 88.963 79.9585 89.1685 79.9585 89.3928C79.921 89.617 79.9022 89.86 79.9022 90.1216C79.9022 90.3832 79.8835 90.6449 79.846 90.9065C79.8085 91.4671 79.7897 92.0651 79.7897 92.7005C79.7897 93.3359 79.771 94.0087 79.7335 94.7188V96.8492C79.696 97.223 79.6772 97.5967 79.6772 97.9705C79.6772 98.3442 79.6772 98.718 79.6772 99.0917C79.6772 99.4655 79.6772 99.8392 79.6772 100.213C79.6772 100.549 79.696 100.904 79.7335 101.278V103.465C79.7335 103.801 79.7335 104.137 79.7335 104.474C79.771 104.81 79.7897 105.128 79.7897 105.427C79.7897 105.763 79.7897 106.081 79.7897 106.38C79.8272 106.642 79.846 106.922 79.846 107.221C79.8835 107.52 79.9022 107.8 79.9022 108.062C79.9022 108.286 79.921 108.51 79.9585 108.735C79.9585 108.959 79.9585 109.164 79.9585 109.351C79.996 109.538 80.0147 109.725 80.0147 109.912C80.0522 110.099 80.071 110.267 80.071 110.417C80.071 110.529 80.071 110.622 80.071 110.697V110.865C80.071 110.902 80.0897 110.921 80.1272 110.921V110.697C80.1272 110.622 80.1272 110.529 80.1272 110.417C80.1647 110.267 80.1835 110.099 80.1835 109.912C80.1835 109.725 80.1835 109.538 80.1835 109.351C80.221 109.164 80.2397 108.959 80.2397 108.735C80.2772 108.51 80.296 108.286 80.296 108.062C80.296 107.8 80.3147 107.52 80.3522 107.221C80.3522 106.922 80.3522 106.642 80.3522 106.38C80.3898 106.081 80.4085 105.763 80.4085 105.427C80.4085 105.128 80.4085 104.81 80.4085 104.474C80.446 104.137 80.4648 103.801 80.4648 103.465V102.4C80.4648 102.325 80.4648 102.231 80.4648 102.119C80.5023 102.007 80.521 101.914 80.521 101.839V96.8492Z" fill="#F4EDE8"/>
<path d="M103.59 91.6353C103.59 93.3172 103.177 94.8309 102.352 96.1764C101.527 97.522 100.421 98.5685 99.0334 99.316C99.7085 99.8392 100.327 100.456 100.89 101.166C101.452 101.839 101.921 102.586 102.296 103.409C102.709 104.231 103.027 105.072 103.252 105.932C103.477 106.791 103.59 107.632 103.59 108.454V112.042C103.552 113.238 103.309 114.36 102.859 115.406C102.409 116.415 101.79 117.312 101.002 118.097C100.215 118.845 99.2959 119.443 98.2459 119.891C97.1958 120.377 96.0708 120.62 94.8707 120.62H89.583C89.3205 120.62 89.0954 120.527 88.9079 120.34C88.7579 120.153 88.6829 119.929 88.6829 119.667C88.6829 119.929 88.5892 120.153 88.4017 120.34C88.2141 120.527 88.0079 120.62 87.7829 120.62H84.8015C84.8015 120.284 84.8577 120.041 84.9702 119.891C85.1203 119.742 85.2703 119.574 85.4203 119.387C85.5703 119.237 85.7015 119.013 85.814 118.714C85.964 118.415 86.039 117.948 86.039 117.312V101.671C85.9265 100.549 85.4015 99.7271 84.464 99.2039C84.9515 98.9049 85.4765 98.7554 86.039 98.7554V80.3105C86.039 79.6751 85.964 79.208 85.814 78.9089C85.7015 78.6099 85.5703 78.3857 85.4203 78.2362C85.2703 78.0493 85.1203 77.8811 84.9702 77.7316C84.8577 77.5821 84.8015 77.3392 84.8015 77.0028H87.7829C88.0079 77.0028 88.2141 77.0962 88.4017 77.2831C88.5892 77.4326 88.6829 77.6382 88.6829 77.8998C88.6829 77.3018 88.9829 77.0028 89.583 77.0028H94.8707C96.0708 77.0028 97.1958 77.227 98.2459 77.6756C99.2959 78.1241 100.215 78.7408 101.002 79.5256C101.79 80.2732 102.409 81.1702 102.859 82.2167C103.309 83.2632 103.552 84.3658 103.59 85.5244V91.6353ZM89.0767 95.784C89.0767 95.5224 89.0579 95.2794 89.0204 95.0552C89.0204 94.7935 89.0204 94.5506 89.0204 94.3264V92.8687C88.9829 91.8969 88.9642 90.9812 88.9642 90.1216C88.9642 89.262 88.9454 88.4584 88.9079 87.7109C88.8704 87.2998 88.8517 86.926 88.8517 86.5896C88.8517 86.2532 88.8329 85.9355 88.7954 85.6365C88.7954 85.3375 88.7767 85.0572 88.7392 84.7956C88.7392 84.4966 88.7392 84.2536 88.7392 84.0668C88.7392 83.8425 88.7204 83.637 88.6829 83.4501C88.6829 83.2632 88.6829 83.1137 88.6829 83.0016V82.6652C88.6454 82.7026 88.6267 82.7399 88.6267 82.7773V83.0016C88.6267 83.1137 88.6079 83.2632 88.5704 83.4501C88.5704 83.637 88.5704 83.8425 88.5704 84.0668C88.5704 84.2536 88.5517 84.4966 88.5142 84.7956C88.5142 85.0572 88.5142 85.3375 88.5142 85.6365C88.4767 85.9355 88.4579 86.2532 88.4579 86.5896C88.4579 86.926 88.4392 87.2998 88.4017 87.7109C88.3642 88.4584 88.3454 89.262 88.3454 90.1216C88.3454 90.9812 88.3267 91.8969 88.2892 92.8687V94.3264C88.2892 94.5506 88.2892 94.7935 88.2892 95.0552C88.2892 95.2794 88.2704 95.5224 88.2329 95.784V101.783C88.2329 101.932 88.2329 102.063 88.2329 102.175C88.2704 102.287 88.2892 102.418 88.2892 102.568V104.698C88.2892 105.184 88.2892 105.67 88.2892 106.156C88.3267 106.604 88.3454 107.034 88.3454 107.445C88.3454 107.856 88.3454 108.267 88.3454 108.679C88.3829 109.09 88.4017 109.501 88.4017 109.912C88.4392 110.099 88.4579 110.286 88.4579 110.473C88.4579 110.622 88.4579 110.79 88.4579 110.977C88.4579 111.164 88.4579 111.332 88.4579 111.482C88.4954 111.631 88.5142 111.781 88.5142 111.93C88.5142 112.229 88.5142 112.528 88.5142 112.827C88.5517 113.089 88.5704 113.332 88.5704 113.556C88.5704 113.78 88.5704 113.986 88.5704 114.173C88.6079 114.322 88.6267 114.453 88.6267 114.565V114.846C88.6267 114.883 88.6454 114.92 88.6829 114.958V114.565C88.6829 114.453 88.6829 114.322 88.6829 114.173C88.7204 113.986 88.7392 113.78 88.7392 113.556C88.7392 113.332 88.7392 113.089 88.7392 112.827C88.7767 112.528 88.7954 112.229 88.7954 111.93C88.8329 111.781 88.8517 111.631 88.8517 111.482C88.8517 111.332 88.8517 111.164 88.8517 110.977C88.8517 110.79 88.8517 110.622 88.8517 110.473C88.8892 110.286 88.9079 110.099 88.9079 109.912C88.9079 109.501 88.9079 109.09 88.9079 108.679C88.9454 108.267 88.9642 107.856 88.9642 107.445C88.9642 107.034 88.9642 106.604 88.9642 106.156C89.0017 105.67 89.0204 105.184 89.0204 104.698V103.297C89.0204 102.96 89.0392 102.717 89.0767 102.568V95.784ZM100.665 110.921C100.627 111.033 100.608 111.22 100.608 111.482V112.491C100.608 112.678 100.59 112.846 100.552 112.995C100.552 113.145 100.552 113.294 100.552 113.444C100.552 113.593 100.533 113.724 100.496 113.836C100.496 113.949 100.496 114.061 100.496 114.173V114.341C100.458 114.378 100.44 114.434 100.44 114.509V114.79C100.402 114.827 100.383 114.864 100.383 114.902V115.014C100.383 115.051 100.365 115.089 100.327 115.126C100.327 115.126 100.327 115.145 100.327 115.182C100.327 115.219 100.308 115.257 100.271 115.294H100.327C100.327 115.294 100.346 115.257 100.383 115.182C100.383 115.182 100.402 115.145 100.44 115.07C100.477 115.032 100.496 114.995 100.496 114.958C100.533 114.92 100.552 114.883 100.552 114.846C100.59 114.808 100.608 114.771 100.608 114.733C100.646 114.696 100.665 114.64 100.665 114.565C100.74 114.491 100.777 114.397 100.777 114.285C100.852 114.135 100.927 113.874 101.002 113.5C101.077 113.276 101.115 113.126 101.115 113.052C101.152 112.977 101.171 112.902 101.171 112.827C101.171 112.715 101.19 112.622 101.227 112.547C101.227 112.472 101.227 112.397 101.227 112.323C101.265 112.211 101.283 112.117 101.283 112.042C101.321 111.93 101.34 111.762 101.34 111.538C101.377 111.351 101.396 111.164 101.396 110.977C101.396 110.79 101.415 110.603 101.452 110.417V108.062C101.452 107.875 101.433 107.688 101.396 107.501C101.396 107.314 101.377 107.128 101.34 106.941C101.34 106.716 101.321 106.548 101.283 106.436C101.283 106.361 101.265 106.287 101.227 106.212C101.227 106.1 101.227 106.006 101.227 105.932C101.19 105.857 101.171 105.782 101.171 105.707C101.171 105.595 101.152 105.502 101.115 105.427C101.115 105.352 101.096 105.277 101.058 105.203C101.058 105.128 101.058 105.053 101.058 104.978C100.983 104.754 100.946 104.623 100.946 104.586C100.908 104.474 100.852 104.343 100.777 104.194C100.777 104.081 100.74 103.988 100.665 103.913C100.665 103.801 100.627 103.708 100.552 103.633C100.477 103.483 100.421 103.371 100.383 103.297C100.346 103.259 100.327 103.222 100.327 103.184H100.271C100.271 103.184 100.29 103.222 100.327 103.297C100.327 103.334 100.327 103.371 100.327 103.409C100.365 103.409 100.383 103.427 100.383 103.465C100.383 103.539 100.402 103.614 100.44 103.689V103.969C100.477 104.044 100.496 104.137 100.496 104.25C100.496 104.436 100.515 104.567 100.552 104.642V105.034C100.59 105.184 100.608 105.333 100.608 105.483C100.608 105.633 100.608 105.801 100.608 105.988V106.492C100.608 106.567 100.608 106.66 100.608 106.772C100.646 106.847 100.665 106.922 100.665 106.997V110.921ZM98.3584 108.454C98.3584 107.968 98.3396 107.277 98.3021 106.38C98.2646 105.483 98.1334 104.586 97.9084 103.689C97.6834 102.792 97.3271 102.026 96.8396 101.39C96.3895 100.718 95.7145 100.381 94.8145 100.381H92.7894C92.3769 100.381 92.0206 100.531 91.7206 100.83C91.4206 101.129 91.2705 101.484 91.2705 101.895V116.471C91.2705 116.883 91.4206 117.238 91.7206 117.537C92.0206 117.798 92.3769 117.948 92.7894 117.985H94.8145C95.7145 117.985 96.3895 117.761 96.8396 117.312C97.3271 116.826 97.6834 116.266 97.9084 115.63C98.1334 114.995 98.2646 114.322 98.3021 113.612C98.3396 112.902 98.3584 112.304 98.3584 111.818V108.454ZM98.3584 85.7487C98.3584 85.2628 98.3396 84.6835 98.3021 84.0107C98.2646 83.3006 98.1334 82.6278 97.9084 81.9924C97.6834 81.357 97.3271 80.8151 96.8396 80.3666C96.3895 79.8807 95.7145 79.6378 94.8145 79.6378H92.7894C92.3769 79.6378 92.0206 79.7873 91.7206 80.0863C91.4206 80.3853 91.2705 80.7403 91.2705 81.1515V96.2325C91.2705 96.6436 91.4206 96.9987 91.7206 97.2977C92.0206 97.5967 92.3769 97.7462 92.7894 97.7462H94.8145C95.7145 97.7462 96.3895 97.522 96.8396 97.0735C97.3271 96.625 97.6834 96.083 97.9084 95.4476C98.1334 94.7749 98.2646 94.1021 98.3021 93.4293C98.3396 92.7192 98.3584 92.1212 98.3584 91.6353V85.7487ZM100.89 93.149C100.965 92.9248 101.002 92.7753 101.002 92.7005C101.077 92.551 101.115 92.4015 101.115 92.252C101.152 92.1773 101.171 92.1025 101.171 92.0278C101.171 91.9156 101.19 91.8222 101.227 91.7474C101.227 91.6727 101.227 91.5979 101.227 91.5232C101.265 91.4111 101.283 91.2989 101.283 91.1868C101.321 91.0747 101.34 90.8878 101.34 90.6262C101.377 90.4393 101.396 90.2524 101.396 90.0655C101.396 89.8787 101.415 89.6918 101.452 89.5049V88.2715C101.452 87.8604 101.452 87.4679 101.452 87.0942C101.452 86.6831 101.433 86.2906 101.396 85.9169C101.358 85.8047 101.34 85.7113 101.34 85.6365C101.34 85.5244 101.321 85.431 101.283 85.3562C101.283 85.0946 101.265 84.9077 101.227 84.7956C101.19 84.6087 101.152 84.4405 101.115 84.291C101.115 84.1415 101.096 83.992 101.058 83.8425C100.983 83.6183 100.946 83.4688 100.946 83.394C100.871 83.2445 100.833 83.1324 100.833 83.0576C100.758 82.9081 100.702 82.796 100.665 82.7213C100.665 82.6091 100.627 82.5157 100.552 82.4409C100.515 82.3288 100.458 82.198 100.383 82.0485L100.271 81.9364V81.9924C100.271 82.0298 100.271 82.0485 100.271 82.0485C100.308 82.0485 100.327 82.0672 100.327 82.1046C100.365 82.1419 100.383 82.198 100.383 82.2727C100.383 82.3475 100.402 82.4222 100.44 82.497V82.7773C100.477 82.8521 100.496 82.9642 100.496 83.1137C100.496 83.1884 100.496 83.2632 100.496 83.3379C100.533 83.3753 100.552 83.4314 100.552 83.5061V83.8986C100.59 84.0481 100.608 84.1976 100.608 84.3471C100.608 84.4966 100.608 84.6648 100.608 84.8517V85.4123C100.608 85.487 100.608 85.5805 100.608 85.6926C100.646 85.7674 100.665 85.8421 100.665 85.9169V90.0655C100.627 90.1777 100.608 90.3645 100.608 90.6262V91.6914C100.608 91.8783 100.59 92.0464 100.552 92.1959C100.552 92.3455 100.552 92.495 100.552 92.6445C100.552 92.794 100.533 92.9435 100.496 93.093C100.496 93.2051 100.496 93.3172 100.496 93.4293C100.496 93.6162 100.477 93.7283 100.44 93.7657V94.1021C100.402 94.1021 100.383 94.1395 100.383 94.2142V94.3264C100.383 94.3637 100.365 94.4011 100.327 94.4385C100.327 94.4385 100.327 94.4572 100.327 94.4945C100.327 94.5319 100.308 94.5693 100.271 94.6067L100.383 94.4945C100.383 94.4572 100.383 94.4385 100.383 94.4385C100.421 94.4011 100.44 94.3637 100.44 94.3264C100.477 94.3264 100.496 94.289 100.496 94.2142C100.533 94.2142 100.552 94.1769 100.552 94.1021C100.59 94.1021 100.608 94.0647 100.608 93.99C100.646 93.9526 100.665 93.8965 100.665 93.8218C100.74 93.747 100.777 93.6536 100.777 93.5415C100.852 93.3172 100.89 93.1864 100.89 93.149Z" fill="#F4EDE8"/>
<path d="M124.867 115.406C125.017 116.042 125.186 116.509 125.373 116.808C125.561 117.107 125.748 117.35 125.936 117.537C126.123 117.723 126.292 117.892 126.442 118.041C126.592 118.191 126.705 118.434 126.78 118.77H123.798C123.536 118.77 123.292 118.677 123.067 118.49C122.879 118.303 122.767 118.079 122.729 117.817C122.767 118.079 122.711 118.303 122.561 118.49C122.411 118.677 122.223 118.77 121.998 118.77H119.017C118.942 118.434 118.961 118.191 119.073 118.041C119.186 117.892 119.298 117.742 119.411 117.593C119.523 117.406 119.617 117.163 119.692 116.864C119.767 116.527 119.748 116.023 119.636 115.35V115.294L118.398 108.959C118.323 108.585 118.117 108.267 117.779 108.006C117.442 107.707 117.067 107.557 116.654 107.557H112.773C112.36 107.557 111.985 107.707 111.648 108.006C111.31 108.267 111.104 108.585 111.029 108.959L109.848 115.294V115.35C109.735 116.023 109.698 116.527 109.735 116.864C109.81 117.163 109.904 117.406 110.016 117.593C110.166 117.742 110.279 117.892 110.354 118.041C110.466 118.191 110.504 118.434 110.466 118.77H107.485C107.222 118.77 107.016 118.677 106.866 118.49C106.716 118.303 106.66 118.079 106.697 117.817C106.66 118.079 106.547 118.303 106.36 118.49C106.172 118.677 105.947 118.77 105.685 118.77H102.703C102.741 118.434 102.835 118.191 102.985 118.041C103.135 117.892 103.303 117.723 103.491 117.537C103.678 117.35 103.866 117.107 104.053 116.808C104.241 116.509 104.41 116.042 104.56 115.406L107.091 101.783C107.166 101.26 107.11 100.774 106.922 100.325C106.735 99.8766 106.435 99.5216 106.022 99.2599C106.622 98.9983 107.166 98.8675 107.654 98.8675L110.691 82.8894C110.804 82.2541 110.823 81.7869 110.748 81.4879C110.673 81.1515 110.579 80.9085 110.466 80.759C110.354 80.5722 110.241 80.404 110.129 80.2545C110.016 80.105 109.998 79.862 110.073 79.5256H113.841C114.404 79.6004 114.685 79.9181 114.685 80.4787C114.685 80.2171 114.76 80.0115 114.91 79.862C115.098 79.6751 115.304 79.563 115.529 79.5256H119.354C119.429 79.862 119.411 80.105 119.298 80.2545C119.223 80.404 119.129 80.5722 119.017 80.759C118.904 80.9085 118.81 81.1515 118.735 81.4879C118.66 81.7869 118.679 82.2541 118.792 82.8894L121.773 98.8675C122.073 98.8675 122.354 98.9049 122.617 98.9796C122.879 99.0544 123.142 99.1478 123.404 99.2599C122.579 99.7832 122.223 100.624 122.336 101.783L124.867 115.406ZM111.366 95.3355C111.441 95.1112 111.479 94.9057 111.479 94.7188C111.516 94.4945 111.554 94.289 111.591 94.1021C111.779 93.2425 111.929 92.4389 112.041 91.6914C112.154 90.9065 112.266 90.1964 112.379 89.561C112.454 89.262 112.491 88.963 112.491 88.664C112.529 88.365 112.566 88.066 112.604 87.7669C112.641 87.5053 112.679 87.2624 112.716 87.0381C112.754 86.8139 112.791 86.6083 112.829 86.4214C112.866 86.2346 112.885 86.0664 112.885 85.9169C112.885 85.73 112.904 85.5805 112.941 85.4684V85.2441L112.885 85.4684C112.848 85.5805 112.81 85.7113 112.773 85.8608C112.735 86.0103 112.698 86.1785 112.66 86.3654C112.585 86.5522 112.529 86.7765 112.491 87.0381C112.454 87.2624 112.398 87.4866 112.323 87.7109C112.248 88.0099 112.173 88.3089 112.098 88.6079C112.06 88.9069 112.004 89.2059 111.929 89.5049C111.741 90.1403 111.554 90.8317 111.366 91.5793C111.216 92.2894 111.048 93.0743 110.86 93.9339C110.86 94.1582 110.841 94.3637 110.804 94.5506C110.766 94.7375 110.71 94.9431 110.635 95.1673C110.598 95.3916 110.56 95.6158 110.523 95.8401C110.485 96.0269 110.448 96.2325 110.41 96.4568C110.298 96.8679 110.185 97.2977 110.073 97.7462C109.998 98.1947 109.923 98.6432 109.848 99.0917C109.773 99.5029 109.679 99.9327 109.566 100.381C109.491 100.83 109.416 101.26 109.341 101.671C109.304 101.783 109.285 101.895 109.285 102.007C109.285 102.082 109.266 102.175 109.229 102.287C109.154 102.586 109.116 102.811 109.116 102.96C109.004 103.334 108.929 103.745 108.891 104.194C108.816 104.605 108.741 105.016 108.666 105.427C108.591 105.838 108.535 106.212 108.497 106.548C108.385 107.408 108.272 108.118 108.16 108.679C108.085 108.978 108.029 109.277 107.991 109.576C107.954 109.875 107.916 110.174 107.879 110.473C107.804 110.734 107.747 110.996 107.71 111.258C107.71 111.482 107.691 111.687 107.654 111.874C107.616 112.061 107.597 112.229 107.597 112.379C107.597 112.528 107.579 112.659 107.541 112.771C107.541 112.846 107.522 112.902 107.485 112.939C107.485 112.939 107.485 112.958 107.485 112.995V113.052C107.522 113.052 107.541 113.033 107.541 112.995C107.541 112.921 107.56 112.846 107.597 112.771C107.635 112.696 107.654 112.584 107.654 112.435C107.691 112.248 107.747 112.061 107.822 111.874C107.897 111.687 107.954 111.482 107.991 111.258C108.066 111.033 108.141 110.79 108.216 110.529C108.291 110.267 108.347 109.987 108.385 109.688C108.46 109.389 108.516 109.09 108.554 108.791C108.629 108.492 108.704 108.174 108.779 107.838C108.891 107.464 108.985 107.09 109.06 106.716C109.135 106.343 109.21 105.95 109.285 105.539C109.398 105.128 109.51 104.717 109.623 104.306C109.66 104.119 109.698 103.932 109.735 103.745C109.773 103.521 109.81 103.315 109.848 103.128L110.016 102.456C110.054 102.343 110.073 102.231 110.073 102.119C110.073 102.007 110.091 101.895 110.129 101.783C110.204 101.372 110.298 100.961 110.41 100.549C110.523 100.101 110.616 99.6524 110.691 99.2039C110.766 98.7927 110.841 98.3629 110.916 97.9144C110.991 97.4659 111.066 97.0361 111.141 96.6249C111.179 96.4007 111.216 96.1764 111.254 95.9522C111.291 95.7279 111.329 95.5224 111.366 95.3355ZM116.148 104.922C116.56 104.885 116.879 104.735 117.104 104.474C117.367 104.175 117.46 103.82 117.385 103.409L117.048 101.783C116.898 101.26 116.635 100.774 116.26 100.325C115.923 99.8766 115.51 99.5216 115.023 99.2599C115.473 98.9983 115.96 98.8675 116.485 98.8675L114.685 89.2807L112.885 98.8675C113.373 98.8675 113.879 98.9983 114.404 99.2599C113.879 99.5216 113.429 99.8766 113.054 100.325C112.716 100.774 112.491 101.26 112.379 101.783L112.098 103.409C112.023 103.82 112.098 104.175 112.323 104.474C112.548 104.735 112.848 104.885 113.223 104.922H116.148ZM121.829 112.771C121.829 112.846 121.829 112.902 121.829 112.939C121.867 112.939 121.886 112.958 121.886 112.995V112.771C121.848 112.659 121.829 112.528 121.829 112.379C121.829 112.229 121.811 112.061 121.773 111.874C121.736 111.687 121.698 111.482 121.661 111.258C121.661 110.996 121.623 110.734 121.548 110.473C121.511 110.174 121.473 109.875 121.436 109.576C121.398 109.277 121.342 108.978 121.267 108.679C121.154 108.118 121.042 107.408 120.929 106.548C120.854 106.212 120.779 105.838 120.704 105.427C120.667 105.016 120.611 104.605 120.536 104.194C120.461 103.969 120.404 103.764 120.367 103.577C120.367 103.39 120.329 103.184 120.254 102.96C120.254 102.811 120.217 102.586 120.142 102.287C120.142 102.175 120.123 102.082 120.086 102.007C120.086 101.895 120.086 101.783 120.086 101.671C120.011 101.26 119.917 100.83 119.804 100.381C119.729 99.9327 119.654 99.5029 119.579 99.0917C119.504 98.6432 119.411 98.1947 119.298 97.7462C119.223 97.2977 119.129 96.8679 119.017 96.4568C118.979 96.2325 118.942 96.0269 118.904 95.8401C118.867 95.6158 118.829 95.3916 118.792 95.1673C118.717 94.9431 118.66 94.7375 118.623 94.5506C118.585 94.3637 118.548 94.1582 118.51 93.9339C118.323 93.0743 118.135 92.2894 117.948 91.5793C117.798 90.8317 117.667 90.1403 117.554 89.5049C117.479 89.2059 117.404 88.9069 117.329 88.6079C117.254 88.3089 117.179 88.0099 117.104 87.7109C117.029 87.4866 116.954 87.2624 116.879 87.0381C116.842 86.7765 116.785 86.5522 116.71 86.3654C116.673 86.1785 116.635 86.0103 116.598 85.8608C116.56 85.7113 116.523 85.5805 116.485 85.4684L116.429 85.2441V85.4684C116.467 85.6552 116.523 85.9729 116.598 86.4214C116.598 86.6083 116.617 86.8139 116.654 87.0381C116.692 87.2624 116.729 87.5053 116.767 87.7669C116.804 88.066 116.842 88.365 116.879 88.664C116.917 88.963 116.973 89.262 117.048 89.561C117.16 90.1964 117.273 90.9065 117.385 91.6914C117.498 92.4389 117.629 93.2425 117.779 94.1021C117.817 94.289 117.835 94.4945 117.835 94.7188C117.873 94.9057 117.929 95.1112 118.004 95.3355C118.042 95.5224 118.079 95.7279 118.117 95.9522C118.154 96.1764 118.192 96.4007 118.229 96.6249C118.304 97.0361 118.379 97.4659 118.454 97.9144C118.567 98.3629 118.66 98.7927 118.735 99.2039C118.81 99.6524 118.904 100.101 119.017 100.549C119.129 100.961 119.223 101.372 119.298 101.783C119.336 101.895 119.354 102.007 119.354 102.119C119.354 102.231 119.373 102.343 119.411 102.456L119.579 103.128C119.617 103.315 119.654 103.521 119.692 103.745C119.729 103.932 119.767 104.119 119.804 104.306C119.917 104.717 120.011 105.128 120.086 105.539C120.161 105.95 120.236 106.343 120.311 106.716C120.386 107.09 120.461 107.464 120.536 107.838C120.648 108.174 120.742 108.492 120.817 108.791C120.892 109.09 120.967 109.389 121.042 109.688C121.117 109.987 121.192 110.267 121.267 110.529C121.379 111.052 121.492 111.5 121.604 111.874C121.679 112.061 121.717 112.248 121.717 112.435C121.754 112.584 121.792 112.696 121.829 112.771Z" fill="#F4EDE8"/>
<path d="M148.469 121.125C148.882 121.199 149.163 121.33 149.313 121.517C149.5 121.704 149.632 121.891 149.707 122.078C149.782 122.302 149.819 122.545 149.819 122.807C148.619 122.807 147.494 122.657 146.444 122.358C145.394 122.059 144.456 121.573 143.631 120.9C142.844 120.228 142.206 119.349 141.719 118.265C141.269 117.182 141.044 115.855 141.044 114.285V106.604C141.044 106.118 141.025 105.52 140.987 104.81C140.95 104.1 140.819 103.427 140.594 102.792C140.369 102.157 140.012 101.615 139.525 101.166C139.075 100.68 138.4 100.437 137.5 100.437H135.193C134.856 100.512 134.556 100.699 134.293 100.998C134.068 101.26 133.956 101.577 133.956 101.951V115.35C133.956 116.023 134.012 116.527 134.125 116.864C134.275 117.163 134.425 117.406 134.575 117.593C134.725 117.742 134.856 117.892 134.968 118.041C135.118 118.191 135.193 118.434 135.193 118.77H132.212C131.987 118.77 131.781 118.677 131.593 118.49C131.406 118.303 131.312 118.097 131.312 117.873C131.312 118.097 131.218 118.303 131.031 118.49C130.881 118.677 130.674 118.77 130.412 118.77H127.487C127.487 118.434 127.543 118.191 127.655 118.041C127.805 117.892 127.956 117.742 128.106 117.593C128.256 117.406 128.387 117.163 128.499 116.864C128.649 116.565 128.724 116.098 128.724 115.462V101.783C128.612 100.624 128.087 99.7832 127.149 99.2599C127.562 98.9983 128.087 98.8675 128.724 98.8675V82.8334C128.724 82.198 128.649 81.7308 128.499 81.4318C128.387 81.1328 128.256 80.9085 128.106 80.759C127.956 80.5722 127.805 80.404 127.655 80.2545C127.543 80.105 127.487 79.862 127.487 79.5256H130.468C130.693 79.5256 130.899 79.6191 131.087 79.806C131.274 79.9555 131.368 80.161 131.368 80.4227C131.368 79.8246 131.668 79.5256 132.268 79.5256H137.556C138.756 79.5256 139.881 79.7499 140.931 80.1984C141.981 80.6469 142.9 81.2636 143.688 82.0485C144.475 82.796 145.094 83.693 145.544 84.7395C145.994 85.786 146.238 86.8886 146.275 88.0473V91.6914C146.275 93.2612 145.9 94.7001 145.15 96.0083C144.4 97.3164 143.388 98.3629 142.112 99.1478C143.388 99.8953 144.4 100.942 145.15 102.287C145.9 103.596 146.275 105.034 146.275 106.604V114.061C146.275 114.846 146.275 115.649 146.275 116.471C146.313 117.256 146.406 117.985 146.556 118.658C146.706 119.293 146.931 119.835 147.231 120.284C147.531 120.732 147.944 121.013 148.469 121.125ZM143.35 90.7383C143.312 90.8131 143.294 90.9065 143.294 91.0186V92.3081C143.256 92.4576 143.237 92.6071 143.237 92.7566C143.237 92.8687 143.237 92.9808 143.237 93.093C143.237 93.1677 143.219 93.2238 143.181 93.2612C143.181 93.2985 143.181 93.3546 143.181 93.4293V93.7657C143.144 93.8405 143.125 93.9339 143.125 94.046C143.125 94.1208 143.106 94.1955 143.069 94.2703C143.069 94.345 143.05 94.4011 143.012 94.4385V94.5506L142.956 94.6627C142.956 94.6627 142.994 94.644 143.069 94.6067V94.5506L143.125 94.4945C143.162 94.4572 143.181 94.4385 143.181 94.4385C143.181 94.4011 143.2 94.3637 143.237 94.3264C143.275 94.2516 143.312 94.1769 143.35 94.1021C143.387 93.99 143.425 93.8965 143.463 93.8218C143.5 93.747 143.519 93.7097 143.519 93.7097C143.519 93.6723 143.537 93.6162 143.575 93.5415C143.613 93.4667 143.631 93.4107 143.631 93.3733C143.631 93.2985 143.65 93.2238 143.688 93.149C143.725 93.0743 143.744 93.0182 143.744 92.9808C143.744 92.9435 143.763 92.8874 143.8 92.8126C143.8 92.7379 143.8 92.6818 143.8 92.6445C143.838 92.5697 143.856 92.495 143.856 92.4202C143.894 92.2707 143.913 92.1212 143.913 91.9717C143.95 91.8222 143.988 91.6727 144.025 91.5232C144.063 91.4111 144.081 91.2429 144.081 91.0186C144.081 90.9439 144.081 90.8691 144.081 90.7944C144.119 90.7196 144.138 90.6449 144.138 90.5701V88.6079C144.138 88.3836 144.119 88.2155 144.081 88.1033V87.8791C144.081 87.8043 144.063 87.7669 144.025 87.7669C144.025 87.7296 144.025 87.6735 144.025 87.5988C144.025 87.4119 143.988 87.1316 143.913 86.7578C143.875 86.6831 143.856 86.6083 143.856 86.5336C143.856 86.4588 143.838 86.3841 143.8 86.3093C143.8 86.2719 143.781 86.2532 143.744 86.2532C143.744 86.2159 143.744 86.1785 143.744 86.1411C143.744 86.1037 143.725 86.0851 143.688 86.0851C143.688 86.0477 143.688 86.0103 143.688 85.9729C143.65 85.8982 143.631 85.8421 143.631 85.8047C143.631 85.7674 143.613 85.7113 143.575 85.6365C143.537 85.5618 143.519 85.5057 143.519 85.4684C143.519 85.431 143.5 85.3749 143.463 85.3002C143.425 85.2628 143.406 85.2254 143.406 85.188C143.406 85.1507 143.387 85.1133 143.35 85.0759C143.275 84.9264 143.237 84.8517 143.237 84.8517C143.2 84.8143 143.181 84.7956 143.181 84.7956C143.181 84.7582 143.162 84.7208 143.125 84.6835C143.087 84.6461 143.069 84.6087 143.069 84.5713C143.031 84.534 143.012 84.4966 143.012 84.4592H142.956C142.956 84.4592 142.975 84.4966 143.012 84.5713V84.6835C143.05 84.7208 143.069 84.7956 143.069 84.9077C143.069 84.9451 143.069 84.9825 143.069 85.0198C143.106 85.0198 143.125 85.0572 143.125 85.132C143.125 85.2441 143.144 85.3375 143.181 85.4123V85.6926C143.181 85.7674 143.181 85.8234 143.181 85.8608C143.219 85.8982 143.237 85.9542 143.237 86.029C143.237 86.3654 143.256 86.627 143.294 86.8139V87.7109C143.331 87.8978 143.35 88.1968 143.35 88.6079V90.7383ZM131.762 96.5128C131.762 96.3259 131.743 96.1204 131.706 95.8961C131.706 95.6719 131.706 95.4476 131.706 95.2234V93.99C131.668 93.1677 131.649 92.3828 131.649 91.6353C131.649 90.8878 131.631 90.1777 131.593 89.5049C131.556 89.2059 131.537 88.9069 131.537 88.6079C131.537 88.3089 131.518 88.0286 131.481 87.7669C131.481 87.4679 131.462 87.2063 131.424 86.9821C131.424 86.7578 131.424 86.5522 131.424 86.3654C131.424 86.1785 131.406 86.0103 131.368 85.8608C131.368 85.7113 131.368 85.5805 131.368 85.4684V85.188C131.331 85.188 131.312 85.2067 131.312 85.2441V85.4684C131.312 85.5805 131.293 85.7113 131.256 85.8608C131.256 86.0103 131.256 86.1785 131.256 86.3654C131.256 86.5522 131.237 86.7578 131.199 86.9821C131.199 87.2063 131.199 87.4679 131.199 87.7669C131.162 88.0286 131.143 88.3089 131.143 88.6079C131.143 88.9069 131.124 89.2059 131.087 89.5049C131.049 90.1777 131.031 90.8878 131.031 91.6353C131.031 92.3828 131.012 93.1677 130.974 93.99V95.2234C130.974 95.4476 130.956 95.6719 130.918 95.8961C130.918 96.1204 130.918 96.3259 130.918 96.5128V101.727C130.918 102.026 130.937 102.25 130.974 102.4V104.25C130.974 104.661 130.974 105.072 130.974 105.483C131.012 105.857 131.031 106.231 131.031 106.604C131.031 107.015 131.031 107.389 131.031 107.726C131.068 108.062 131.087 108.398 131.087 108.735C131.124 109.071 131.143 109.389 131.143 109.688C131.143 109.949 131.162 110.23 131.199 110.529C131.199 110.79 131.199 111.033 131.199 111.258C131.237 111.482 131.256 111.687 131.256 111.874C131.256 112.061 131.256 112.248 131.256 112.435C131.293 112.584 131.312 112.696 131.312 112.771V113.052C131.312 113.089 131.331 113.108 131.368 113.108V112.771C131.368 112.696 131.368 112.584 131.368 112.435C131.406 112.248 131.424 112.061 131.424 111.874C131.424 111.687 131.424 111.482 131.424 111.258C131.462 111.033 131.481 110.79 131.481 110.529C131.518 110.23 131.537 109.949 131.537 109.688C131.537 109.389 131.556 109.071 131.593 108.735C131.593 108.398 131.593 108.062 131.593 107.726C131.631 107.389 131.649 107.015 131.649 106.604C131.649 106.231 131.649 105.857 131.649 105.483C131.687 105.072 131.706 104.661 131.706 104.25V103.016C131.706 102.717 131.724 102.512 131.762 102.4V96.5128ZM141.044 88.2715C141.044 87.7856 141.025 87.1876 140.987 86.4775C140.95 85.7674 140.819 85.0946 140.594 84.4592C140.369 83.8238 140.012 83.2819 139.525 82.8334C139.075 82.3475 138.4 82.1046 137.5 82.1046H135.475C135.062 82.1419 134.706 82.3101 134.406 82.6091C134.106 82.9081 133.956 83.2632 133.956 83.6743V96.2886C133.956 96.6997 134.106 97.0548 134.406 97.3538C134.706 97.6528 135.062 97.8023 135.475 97.8023H137.5C138.4 97.8023 139.075 97.578 139.525 97.1295C140.012 96.681 140.369 96.1391 140.594 95.5037C140.819 94.8309 140.95 94.1582 140.987 93.4854C141.025 92.7753 141.044 92.1773 141.044 91.6914V88.2715ZM144.813 118.994C144.813 118.994 144.794 118.976 144.756 118.938L144.7 118.882C144.663 118.807 144.625 118.733 144.588 118.658C144.588 118.583 144.55 118.508 144.475 118.434C144.438 118.321 144.4 118.209 144.363 118.097C144.325 117.948 144.288 117.78 144.25 117.593C144.175 117.219 144.138 116.864 144.138 116.527C144.1 116.341 144.081 116.154 144.081 115.967C144.081 115.743 144.081 115.5 144.081 115.238V112.267C144.081 112.005 144.081 111.743 144.081 111.482C144.081 111.22 144.1 110.94 144.138 110.641C144.138 110.379 144.138 110.118 144.138 109.856C144.138 109.594 144.119 109.333 144.081 109.071V108.286C144.081 107.912 144.063 107.651 144.025 107.501C144.025 107.24 144.006 106.997 143.969 106.772C143.969 106.511 143.95 106.268 143.913 106.044C143.838 105.52 143.763 105.072 143.688 104.698C143.65 104.511 143.613 104.343 143.575 104.194C143.537 104.007 143.481 103.82 143.406 103.633C143.331 103.446 143.275 103.297 143.237 103.184C143.2 103.072 143.144 102.96 143.069 102.848C142.994 102.736 142.937 102.642 142.9 102.568C142.862 102.493 142.825 102.418 142.787 102.343C142.75 102.343 142.712 102.325 142.675 102.287C142.637 102.287 142.619 102.269 142.619 102.231L142.675 102.287C142.675 102.325 142.694 102.362 142.731 102.4C142.731 102.437 142.731 102.474 142.731 102.512C142.769 102.512 142.787 102.549 142.787 102.624C142.825 102.661 142.844 102.699 142.844 102.736C142.844 102.773 142.862 102.829 142.9 102.904C142.937 103.054 142.994 103.315 143.069 103.689C143.106 103.876 143.125 104.063 143.125 104.25C143.162 104.436 143.2 104.623 143.237 104.81C143.237 104.997 143.237 105.203 143.237 105.427C143.275 105.614 143.294 105.838 143.294 106.1V113.052C143.294 113.201 143.294 113.332 143.294 113.444C143.331 113.556 143.35 113.687 143.35 113.836C143.35 114.098 143.35 114.36 143.35 114.621C143.387 114.846 143.425 115.07 143.463 115.294C143.5 115.518 143.519 115.743 143.519 115.967C143.556 116.191 143.594 116.397 143.631 116.584C143.706 116.808 143.763 117.013 143.8 117.2C143.838 117.35 143.894 117.518 143.969 117.705C144.044 117.892 144.1 118.041 144.138 118.153C144.175 118.265 144.231 118.378 144.306 118.49L144.419 118.602C144.456 118.639 144.475 118.677 144.475 118.714C144.475 118.714 144.494 118.733 144.531 118.77L144.756 118.994H144.813Z" fill="#F4EDE8"/>
<path d="M165.336 91.6914C165.336 93.2612 164.961 94.7001 164.211 96.0083C163.461 97.3164 162.448 98.3629 161.173 99.1478C162.448 99.8953 163.461 100.942 164.211 102.287C164.961 103.596 165.336 105.034 165.336 106.604V110.248C165.299 111.444 165.055 112.566 164.605 113.612C164.155 114.621 163.536 115.518 162.748 116.303C161.961 117.051 161.042 117.649 159.992 118.097C158.942 118.546 157.817 118.77 156.617 118.77H151.273C151.048 118.77 150.842 118.677 150.654 118.49C150.467 118.303 150.373 118.097 150.373 117.873C150.373 118.097 150.279 118.303 150.092 118.49C149.942 118.677 149.735 118.77 149.473 118.77H146.548C146.548 118.434 146.604 118.191 146.716 118.041C146.866 117.892 147.016 117.742 147.166 117.593C147.316 117.406 147.448 117.163 147.56 116.864C147.71 116.565 147.785 116.098 147.785 115.462V101.783C147.673 100.624 147.148 99.7832 146.21 99.2599C146.623 98.9983 147.148 98.8675 147.785 98.8675V82.8334C147.785 82.198 147.71 81.7308 147.56 81.4318C147.448 81.1328 147.316 80.9085 147.166 80.759C147.016 80.5722 146.866 80.404 146.716 80.2545C146.604 80.105 146.548 79.862 146.548 79.5256H149.529C149.754 79.5256 149.96 79.6191 150.148 79.806C150.335 79.9555 150.429 80.161 150.429 80.4227C150.429 79.8246 150.729 79.5256 151.329 79.5256H156.617C157.817 79.5256 158.942 79.7499 159.992 80.1984C161.042 80.6469 161.961 81.2636 162.748 82.0485C163.536 82.796 164.155 83.693 164.605 84.7395C165.055 85.786 165.299 86.8886 165.336 88.0473V91.6914ZM150.823 96.5128C150.823 96.3259 150.804 96.1204 150.767 95.8961C150.767 95.6719 150.767 95.4476 150.767 95.2234V93.99C150.729 93.1677 150.71 92.3828 150.71 91.6353C150.71 90.8878 150.692 90.1777 150.654 89.5049C150.617 89.2059 150.598 88.9069 150.598 88.6079C150.598 88.3089 150.579 88.0286 150.542 87.7669C150.542 87.4679 150.523 87.2063 150.485 86.9821C150.485 86.7578 150.485 86.5522 150.485 86.3654C150.485 86.1785 150.467 86.0103 150.429 85.8608C150.429 85.7113 150.429 85.5805 150.429 85.4684V85.188C150.392 85.188 150.373 85.2067 150.373 85.2441V85.4684C150.373 85.5805 150.354 85.7113 150.317 85.8608C150.317 86.0103 150.317 86.1785 150.317 86.3654C150.317 86.5522 150.298 86.7578 150.26 86.9821C150.26 87.2063 150.26 87.4679 150.26 87.7669C150.223 88.0286 150.204 88.3089 150.204 88.6079C150.204 88.9069 150.185 89.2059 150.148 89.5049C150.11 90.1777 150.092 90.8878 150.092 91.6353C150.092 92.3828 150.073 93.1677 150.035 93.99V95.2234C150.035 95.4476 150.017 95.6719 149.979 95.8961C149.979 96.1204 149.979 96.3259 149.979 96.5128V101.727C149.979 102.026 149.998 102.25 150.035 102.4V104.25C150.035 104.661 150.035 105.072 150.035 105.483C150.073 105.857 150.092 106.231 150.092 106.604C150.092 107.015 150.092 107.389 150.092 107.726C150.129 108.062 150.148 108.398 150.148 108.735C150.185 109.071 150.204 109.389 150.204 109.688C150.204 109.949 150.223 110.23 150.26 110.529C150.26 110.79 150.26 111.033 150.26 111.258C150.298 111.482 150.317 111.687 150.317 111.874C150.317 112.061 150.317 112.248 150.317 112.435C150.354 112.584 150.373 112.696 150.373 112.771V113.052C150.373 113.089 150.392 113.108 150.429 113.108V112.771C150.429 112.696 150.429 112.584 150.429 112.435C150.467 112.248 150.485 112.061 150.485 111.874C150.485 111.687 150.485 111.482 150.485 111.258C150.523 111.033 150.542 110.79 150.542 110.529C150.579 110.23 150.598 109.949 150.598 109.688C150.598 109.389 150.617 109.071 150.654 108.735C150.654 108.398 150.654 108.062 150.654 107.726C150.692 107.389 150.71 107.015 150.71 106.604C150.71 106.231 150.71 105.857 150.71 105.483C150.748 105.072 150.767 104.661 150.767 104.25V103.016C150.767 102.717 150.785 102.512 150.823 102.4V96.5128ZM162.411 109.52C162.373 109.594 162.355 109.688 162.355 109.8V111.089C162.317 111.239 162.298 111.388 162.298 111.538C162.298 111.65 162.298 111.762 162.298 111.874C162.298 111.949 162.28 112.005 162.242 112.042C162.242 112.08 162.242 112.136 162.242 112.211V112.547C162.205 112.622 162.186 112.715 162.186 112.827C162.186 112.902 162.167 112.977 162.13 113.052C162.13 113.126 162.111 113.182 162.073 113.22V113.332L162.017 113.444C162.017 113.444 162.055 113.425 162.13 113.388V113.332L162.186 113.276C162.223 113.238 162.242 113.22 162.242 113.22C162.242 113.182 162.261 113.145 162.298 113.108C162.336 113.033 162.373 112.958 162.411 112.883C162.448 112.771 162.486 112.678 162.523 112.603C162.561 112.528 162.58 112.491 162.58 112.491C162.58 112.454 162.598 112.397 162.636 112.323C162.673 112.248 162.692 112.192 162.692 112.155C162.692 112.117 162.711 112.061 162.748 111.986C162.786 111.912 162.805 111.856 162.805 111.818C162.805 111.743 162.823 111.669 162.861 111.594C162.861 111.519 162.861 111.463 162.861 111.426C162.898 111.351 162.917 111.276 162.917 111.201C162.955 111.052 162.973 110.902 162.973 110.753C163.011 110.603 163.048 110.454 163.086 110.304C163.123 110.192 163.142 110.024 163.142 109.8C163.142 109.725 163.142 109.65 163.142 109.576C163.18 109.501 163.198 109.426 163.198 109.351V107.389C163.198 107.165 163.18 106.997 163.142 106.885V106.66C163.142 106.586 163.123 106.548 163.086 106.548C163.086 106.511 163.086 106.473 163.086 106.436C163.086 106.249 163.067 106.1 163.03 105.988C163.03 105.838 163.011 105.689 162.973 105.539C162.936 105.464 162.917 105.39 162.917 105.315C162.917 105.24 162.898 105.165 162.861 105.091C162.861 105.053 162.842 105.034 162.805 105.034C162.805 104.997 162.805 104.96 162.805 104.922C162.805 104.885 162.786 104.866 162.748 104.866C162.748 104.829 162.748 104.792 162.748 104.754C162.711 104.679 162.692 104.623 162.692 104.586C162.692 104.549 162.673 104.493 162.636 104.418C162.598 104.343 162.58 104.287 162.58 104.25C162.58 104.212 162.561 104.156 162.523 104.081C162.486 104.044 162.467 104.007 162.467 103.969C162.467 103.932 162.448 103.895 162.411 103.857C162.336 103.708 162.298 103.633 162.298 103.633C162.261 103.596 162.242 103.577 162.242 103.577C162.242 103.539 162.223 103.502 162.186 103.465C162.148 103.427 162.13 103.39 162.13 103.353L162.017 103.24C162.017 103.24 162.036 103.278 162.073 103.353V103.465C162.111 103.502 162.13 103.577 162.13 103.689C162.13 103.726 162.13 103.764 162.13 103.801C162.167 103.801 162.186 103.838 162.186 103.913C162.186 104.025 162.205 104.119 162.242 104.194V104.474C162.242 104.549 162.242 104.605 162.242 104.642C162.28 104.679 162.298 104.735 162.298 104.81C162.298 105.147 162.317 105.408 162.355 105.595V106.492C162.392 106.679 162.411 106.978 162.411 107.389V109.52ZM160.105 106.604C160.105 106.118 160.086 105.52 160.048 104.81C160.011 104.1 159.88 103.427 159.654 102.792C159.429 102.157 159.073 101.615 158.586 101.166C158.136 100.68 157.461 100.437 156.561 100.437H154.535C154.123 100.475 153.767 100.643 153.467 100.942C153.167 101.241 153.017 101.596 153.017 102.007V114.621C153.017 115.032 153.167 115.388 153.467 115.687C153.767 115.986 154.123 116.135 154.535 116.135H156.561C157.461 116.135 158.136 115.911 158.586 115.462C159.073 115.014 159.429 114.472 159.654 113.836C159.88 113.164 160.011 112.491 160.048 111.818C160.086 111.108 160.105 110.51 160.105 110.024V106.604ZM160.105 88.2715C160.105 87.7856 160.086 87.1876 160.048 86.4775C160.011 85.7674 159.88 85.0946 159.654 84.4592C159.429 83.8238 159.073 83.2819 158.586 82.8334C158.136 82.3475 157.461 82.1046 156.561 82.1046H154.535C154.123 82.1419 153.767 82.3101 153.467 82.6091C153.167 82.9081 153.017 83.2632 153.017 83.6743V96.2886C153.017 96.6997 153.167 97.0548 153.467 97.3538C153.767 97.6528 154.123 97.8023 154.535 97.8023H156.561C157.461 97.8023 158.136 97.578 158.586 97.1295C159.073 96.681 159.429 96.1391 159.654 95.5037C159.88 94.8309 160.011 94.1582 160.048 93.4854C160.086 92.7753 160.105 92.1773 160.105 91.6914V88.2715ZM162.523 93.8218C162.561 93.747 162.58 93.7097 162.58 93.7097C162.58 93.6723 162.598 93.6162 162.636 93.5415C162.673 93.4667 162.692 93.4107 162.692 93.3733C162.692 93.2985 162.711 93.2238 162.748 93.149C162.786 93.0743 162.805 93.0182 162.805 92.9808C162.805 92.9435 162.823 92.8874 162.861 92.8126C162.861 92.7379 162.861 92.6818 162.861 92.6445C162.898 92.5697 162.917 92.495 162.917 92.4202C162.955 92.2707 162.973 92.1212 162.973 91.9717C163.011 91.8222 163.048 91.6727 163.086 91.5232C163.123 91.4111 163.142 91.2429 163.142 91.0186C163.142 90.9439 163.142 90.8691 163.142 90.7944C163.18 90.7196 163.198 90.6449 163.198 90.5701V88.6079C163.198 88.3836 163.18 88.2155 163.142 88.1033V87.8791C163.142 87.8043 163.123 87.7669 163.086 87.7669C163.086 87.7296 163.086 87.6735 163.086 87.5988C163.086 87.4119 163.048 87.1316 162.973 86.7578C162.936 86.6831 162.917 86.6083 162.917 86.5336C162.917 86.4588 162.898 86.3841 162.861 86.3093C162.861 86.2719 162.842 86.2532 162.805 86.2532C162.805 86.2159 162.805 86.1785 162.805 86.1411C162.805 86.1037 162.786 86.0851 162.748 86.0851C162.748 86.0477 162.748 86.0103 162.748 85.9729C162.711 85.8982 162.692 85.8421 162.692 85.8047C162.692 85.7674 162.673 85.7113 162.636 85.6365C162.598 85.5618 162.58 85.5057 162.58 85.4684C162.58 85.431 162.561 85.3749 162.523 85.3002C162.486 85.2628 162.467 85.2254 162.467 85.188C162.467 85.1507 162.448 85.1133 162.411 85.0759C162.336 84.9264 162.298 84.8517 162.298 84.8517C162.261 84.8143 162.242 84.7956 162.242 84.7956C162.242 84.7582 162.223 84.7208 162.186 84.6835C162.148 84.6461 162.13 84.6087 162.13 84.5713C162.092 84.534 162.073 84.4966 162.073 84.4592H162.017C162.017 84.4592 162.036 84.4966 162.073 84.5713V84.6835C162.111 84.7208 162.13 84.7956 162.13 84.9077C162.13 84.9451 162.13 84.9825 162.13 85.0198C162.167 85.0198 162.186 85.0572 162.186 85.132C162.186 85.2441 162.205 85.3375 162.242 85.4123V85.6926C162.242 85.7674 162.242 85.8234 162.242 85.8608C162.28 85.8982 162.298 85.9542 162.298 86.029C162.298 86.3654 162.317 86.627 162.355 86.8139V87.7109C162.392 87.8978 162.411 88.1968 162.411 88.6079V90.7383C162.373 90.8131 162.355 90.9065 162.355 91.0186V92.3081C162.317 92.4576 162.298 92.6071 162.298 92.7566C162.298 92.8687 162.298 92.9808 162.298 93.093C162.298 93.1677 162.28 93.2238 162.242 93.2612C162.242 93.2985 162.242 93.3546 162.242 93.4293V93.7657C162.205 93.8405 162.186 93.9339 162.186 94.046C162.186 94.1208 162.167 94.1955 162.13 94.2703C162.13 94.345 162.111 94.4011 162.073 94.4385V94.5506L162.017 94.6627C162.017 94.6627 162.055 94.644 162.13 94.6067V94.5506L162.186 94.4945C162.223 94.4572 162.242 94.4385 162.242 94.4385C162.242 94.4011 162.261 94.3637 162.298 94.3264C162.336 94.2516 162.373 94.1769 162.411 94.1021C162.448 93.99 162.486 93.8965 162.523 93.8218Z" fill="#F4EDE8"/>
<path d="M184.509 115.35C184.509 116.023 184.566 116.527 184.678 116.864C184.828 117.163 184.978 117.406 185.128 117.593C185.278 117.742 185.409 117.892 185.522 118.041C185.672 118.191 185.747 118.434 185.747 118.77H170.446C170.221 118.77 170.015 118.677 169.827 118.49C169.64 118.303 169.546 118.097 169.546 117.873C169.546 118.097 169.452 118.303 169.265 118.49C169.115 118.677 168.909 118.77 168.646 118.77H165.721C165.721 118.434 165.777 118.191 165.89 118.041C166.04 117.892 166.19 117.742 166.34 117.593C166.49 117.406 166.621 117.163 166.734 116.864C166.884 116.565 166.959 116.098 166.959 115.462V101.783C166.846 100.624 166.321 99.7832 165.383 99.2599C165.796 98.9983 166.321 98.8675 166.959 98.8675V82.8334C166.959 82.198 166.884 81.7308 166.734 81.4318C166.621 81.1328 166.49 80.9085 166.34 80.759C166.19 80.5722 166.04 80.404 165.89 80.2545C165.777 80.105 165.721 79.862 165.721 79.5256H168.702C168.927 79.5256 169.134 79.6191 169.321 79.806C169.509 79.9555 169.602 80.161 169.602 80.4227C169.602 79.8246 169.902 79.5256 170.502 79.5256H185.747C185.747 79.862 185.672 80.105 185.522 80.2545C185.409 80.404 185.278 80.5722 185.128 80.759C184.978 80.9085 184.828 81.1515 184.678 81.4879C184.566 81.7869 184.509 82.2727 184.509 82.9455V90.4019C183.197 90.4019 182.184 90.159 181.472 89.6731C180.797 89.1498 180.29 88.5705 179.953 87.9351C179.54 87.225 179.315 86.3841 179.278 85.4123V83.6743C179.278 83.2632 179.128 82.9081 178.828 82.6091C178.528 82.3101 178.172 82.1419 177.759 82.1046H173.709C173.296 82.1419 172.94 82.3101 172.64 82.6091C172.34 82.9081 172.19 83.2632 172.19 83.6743V96.2886C172.19 96.6997 172.34 97.0548 172.64 97.3538C172.94 97.6528 173.296 97.8023 173.709 97.8023H174.103C174.515 97.8023 174.853 97.6528 175.115 97.3538C175.415 97.0548 175.565 96.6997 175.565 96.2886V96.2325C175.603 95.6719 175.753 95.186 176.015 94.7749C176.24 94.4011 176.578 94.0647 177.028 93.7657C177.478 93.4667 178.134 93.3172 178.997 93.3172V104.922C178.134 104.922 177.478 104.773 177.028 104.474C176.578 104.175 176.24 103.838 176.015 103.465C175.753 103.054 175.603 102.568 175.565 102.007C175.565 101.596 175.415 101.241 175.115 100.942C174.853 100.643 174.515 100.475 174.103 100.437H173.709C173.296 100.475 172.94 100.643 172.64 100.942C172.34 101.241 172.19 101.596 172.19 102.007V114.621C172.19 115.032 172.34 115.388 172.64 115.687C172.94 115.986 173.296 116.135 173.709 116.135H177.759C178.172 116.135 178.528 115.986 178.828 115.687C179.128 115.388 179.278 115.032 179.278 114.621V112.827C179.315 111.893 179.54 111.071 179.953 110.361C180.29 109.725 180.797 109.146 181.472 108.623C182.184 108.099 183.197 107.838 184.509 107.838V115.35ZM169.996 96.5128C169.996 96.3259 169.977 96.1204 169.94 95.8961C169.94 95.6719 169.94 95.4476 169.94 95.2234V93.99C169.902 93.1677 169.884 92.3828 169.884 91.6353C169.884 90.8878 169.865 90.1777 169.827 89.5049C169.79 89.2059 169.771 88.9069 169.771 88.6079C169.771 88.3089 169.752 88.0286 169.715 87.7669C169.715 87.4679 169.696 87.2063 169.659 86.9821C169.659 86.7578 169.659 86.5522 169.659 86.3654C169.659 86.1785 169.64 86.0103 169.602 85.8608C169.602 85.7113 169.602 85.5805 169.602 85.4684V85.188C169.565 85.188 169.546 85.2067 169.546 85.2441V85.4684C169.546 85.5805 169.527 85.7113 169.49 85.8608C169.49 86.0103 169.49 86.1785 169.49 86.3654C169.49 86.5522 169.471 86.7578 169.434 86.9821C169.434 87.2063 169.434 87.4679 169.434 87.7669C169.396 88.0286 169.377 88.3089 169.377 88.6079C169.377 88.9069 169.359 89.2059 169.321 89.5049C169.284 90.1777 169.265 90.8878 169.265 91.6353C169.265 92.3828 169.246 93.1677 169.209 93.99V95.2234C169.209 95.4476 169.19 95.6719 169.152 95.8961C169.152 96.1204 169.152 96.3259 169.152 96.5128V101.727C169.152 102.026 169.171 102.25 169.209 102.4V104.25C169.209 104.661 169.209 105.072 169.209 105.483C169.246 105.857 169.265 106.231 169.265 106.604C169.265 107.015 169.265 107.389 169.265 107.726C169.302 108.062 169.321 108.398 169.321 108.735C169.359 109.071 169.377 109.389 169.377 109.688C169.377 109.949 169.396 110.23 169.434 110.529C169.434 110.79 169.434 111.033 169.434 111.258C169.471 111.482 169.49 111.687 169.49 111.874C169.49 112.061 169.49 112.248 169.49 112.435C169.527 112.584 169.546 112.696 169.546 112.771V113.052C169.546 113.089 169.565 113.108 169.602 113.108V112.771C169.602 112.696 169.602 112.584 169.602 112.435C169.64 112.248 169.659 112.061 169.659 111.874C169.659 111.687 169.659 111.482 169.659 111.258C169.696 111.033 169.715 110.79 169.715 110.529C169.752 110.23 169.771 109.949 169.771 109.688C169.771 109.389 169.79 109.071 169.827 108.735C169.827 108.398 169.827 108.062 169.827 107.726C169.865 107.389 169.884 107.015 169.884 106.604C169.884 106.231 169.884 105.857 169.884 105.483C169.921 105.072 169.94 104.661 169.94 104.25V103.016C169.94 102.717 169.959 102.512 169.996 102.4V96.5128Z" fill="#F4EDE8"/>
<path d="M207.139 121.125C207.551 121.199 207.833 121.33 207.983 121.517C208.17 121.704 208.301 121.891 208.376 122.078C208.451 122.302 208.489 122.545 208.489 122.807C207.289 122.807 206.164 122.657 205.114 122.358C204.064 122.059 203.126 121.573 202.301 120.9C201.514 120.228 200.876 119.349 200.388 118.265C199.938 117.182 199.713 115.855 199.713 114.285V106.604C199.713 106.118 199.695 105.52 199.657 104.81C199.62 104.1 199.488 103.427 199.263 102.792C199.038 102.157 198.682 101.615 198.195 101.166C197.745 100.68 197.07 100.437 196.17 100.437H193.863C193.526 100.512 193.226 100.699 192.963 100.998C192.738 101.26 192.626 101.577 192.626 101.951V115.35C192.626 116.023 192.682 116.527 192.794 116.864C192.944 117.163 193.094 117.406 193.244 117.593C193.394 117.742 193.526 117.892 193.638 118.041C193.788 118.191 193.863 118.434 193.863 118.77H190.882C190.657 118.77 190.45 118.677 190.263 118.49C190.075 118.303 189.982 118.097 189.982 117.873C189.982 118.097 189.888 118.303 189.7 118.49C189.55 118.677 189.344 118.77 189.082 118.77H186.157C186.157 118.434 186.213 118.191 186.325 118.041C186.475 117.892 186.625 117.742 186.775 117.593C186.925 117.406 187.057 117.163 187.169 116.864C187.319 116.565 187.394 116.098 187.394 115.462V101.783C187.282 100.624 186.757 99.7832 185.819 99.2599C186.232 98.9983 186.757 98.8675 187.394 98.8675V82.8334C187.394 82.198 187.319 81.7308 187.169 81.4318C187.057 81.1328 186.925 80.9085 186.775 80.759C186.625 80.5722 186.475 80.404 186.325 80.2545C186.213 80.105 186.157 79.862 186.157 79.5256H189.138C189.363 79.5256 189.569 79.6191 189.757 79.806C189.944 79.9555 190.038 80.161 190.038 80.4227C190.038 79.8246 190.338 79.5256 190.938 79.5256H196.226C197.426 79.5256 198.551 79.7499 199.601 80.1984C200.651 80.6469 201.57 81.2636 202.357 82.0485C203.145 82.796 203.764 83.693 204.214 84.7395C204.664 85.786 204.907 86.8886 204.945 88.0473V91.6914C204.945 93.2612 204.57 94.7001 203.82 96.0083C203.07 97.3164 202.057 98.3629 200.782 99.1478C202.057 99.8953 203.07 100.942 203.82 102.287C204.57 103.596 204.945 105.034 204.945 106.604V114.061C204.945 114.846 204.945 115.649 204.945 116.471C204.982 117.256 205.076 117.985 205.226 118.658C205.376 119.293 205.601 119.835 205.901 120.284C206.201 120.732 206.614 121.013 207.139 121.125ZM202.02 90.7383C201.982 90.8131 201.964 90.9065 201.964 91.0186V92.3081C201.926 92.4576 201.907 92.6071 201.907 92.7566C201.907 92.8687 201.907 92.9808 201.907 93.093C201.907 93.1677 201.889 93.2238 201.851 93.2612C201.851 93.2985 201.851 93.3546 201.851 93.4293V93.7657C201.814 93.8405 201.795 93.9339 201.795 94.046C201.795 94.1208 201.776 94.1955 201.739 94.2703C201.739 94.345 201.72 94.4011 201.682 94.4385V94.5506L201.626 94.6627C201.626 94.6627 201.664 94.644 201.739 94.6067V94.5506L201.795 94.4945C201.832 94.4572 201.851 94.4385 201.851 94.4385C201.851 94.4011 201.87 94.3637 201.907 94.3264C201.945 94.2516 201.982 94.1769 202.02 94.1021C202.057 93.99 202.095 93.8965 202.132 93.8218C202.17 93.747 202.189 93.7097 202.189 93.7097C202.189 93.6723 202.207 93.6162 202.245 93.5415C202.282 93.4667 202.301 93.4107 202.301 93.3733C202.301 93.2985 202.32 93.2238 202.357 93.149C202.395 93.0743 202.414 93.0182 202.414 92.9808C202.414 92.9435 202.432 92.8874 202.47 92.8126C202.47 92.7379 202.47 92.6818 202.47 92.6445C202.507 92.5697 202.526 92.495 202.526 92.4202C202.564 92.2707 202.582 92.1212 202.582 91.9717C202.62 91.8222 202.657 91.6727 202.695 91.5232C202.732 91.4111 202.751 91.2429 202.751 91.0186C202.751 90.9439 202.751 90.8691 202.751 90.7944C202.789 90.7196 202.807 90.6449 202.807 90.5701V88.6079C202.807 88.3836 202.789 88.2155 202.751 88.1033V87.8791C202.751 87.8043 202.732 87.7669 202.695 87.7669C202.695 87.7296 202.695 87.6735 202.695 87.5988C202.695 87.4119 202.657 87.1316 202.582 86.7578C202.545 86.6831 202.526 86.6083 202.526 86.5336C202.526 86.4588 202.507 86.3841 202.47 86.3093C202.47 86.2719 202.451 86.2532 202.414 86.2532C202.414 86.2159 202.414 86.1785 202.414 86.1411C202.414 86.1037 202.395 86.0851 202.357 86.0851C202.357 86.0477 202.357 86.0103 202.357 85.9729C202.32 85.8982 202.301 85.8421 202.301 85.8047C202.301 85.7674 202.282 85.7113 202.245 85.6365C202.207 85.5618 202.189 85.5057 202.189 85.4684C202.189 85.431 202.17 85.3749 202.132 85.3002C202.095 85.2628 202.076 85.2254 202.076 85.188C202.076 85.1507 202.057 85.1133 202.02 85.0759C201.945 84.9264 201.907 84.8517 201.907 84.8517C201.87 84.8143 201.851 84.7956 201.851 84.7956C201.851 84.7582 201.832 84.7208 201.795 84.6835C201.757 84.6461 201.739 84.6087 201.739 84.5713C201.701 84.534 201.682 84.4966 201.682 84.4592H201.626C201.626 84.4592 201.645 84.4966 201.682 84.5713V84.6835C201.72 84.7208 201.739 84.7956 201.739 84.9077C201.739 84.9451 201.739 84.9825 201.739 85.0198C201.776 85.0198 201.795 85.0572 201.795 85.132C201.795 85.2441 201.814 85.3375 201.851 85.4123V85.6926C201.851 85.7674 201.851 85.8234 201.851 85.8608C201.889 85.8982 201.907 85.9542 201.907 86.029C201.907 86.3654 201.926 86.627 201.964 86.8139V87.7109C202.001 87.8978 202.02 88.1968 202.02 88.6079V90.7383ZM190.432 96.5128C190.432 96.3259 190.413 96.1204 190.375 95.8961C190.375 95.6719 190.375 95.4476 190.375 95.2234V93.99C190.338 93.1677 190.319 92.3828 190.319 91.6353C190.319 90.8878 190.3 90.1777 190.263 89.5049C190.225 89.2059 190.207 88.9069 190.207 88.6079C190.207 88.3089 190.188 88.0286 190.15 87.7669C190.15 87.4679 190.132 87.2063 190.094 86.9821C190.094 86.7578 190.094 86.5522 190.094 86.3654C190.094 86.1785 190.075 86.0103 190.038 85.8608C190.038 85.7113 190.038 85.5805 190.038 85.4684V85.188C190 85.188 189.982 85.2067 189.982 85.2441V85.4684C189.982 85.5805 189.963 85.7113 189.925 85.8608C189.925 86.0103 189.925 86.1785 189.925 86.3654C189.925 86.5522 189.907 86.7578 189.869 86.9821C189.869 87.2063 189.869 87.4679 189.869 87.7669C189.832 88.0286 189.813 88.3089 189.813 88.6079C189.813 88.9069 189.794 89.2059 189.757 89.5049C189.719 90.1777 189.7 90.8878 189.7 91.6353C189.7 92.3828 189.682 93.1677 189.644 93.99V95.2234C189.644 95.4476 189.625 95.6719 189.588 95.8961C189.588 96.1204 189.588 96.3259 189.588 96.5128V101.727C189.588 102.026 189.607 102.25 189.644 102.4V104.25C189.644 104.661 189.644 105.072 189.644 105.483C189.682 105.857 189.7 106.231 189.7 106.604C189.7 107.015 189.7 107.389 189.7 107.726C189.738 108.062 189.757 108.398 189.757 108.735C189.794 109.071 189.813 109.389 189.813 109.688C189.813 109.949 189.832 110.23 189.869 110.529C189.869 110.79 189.869 111.033 189.869 111.258C189.907 111.482 189.925 111.687 189.925 111.874C189.925 112.061 189.925 112.248 189.925 112.435C189.963 112.584 189.982 112.696 189.982 112.771V113.052C189.982 113.089 190 113.108 190.038 113.108V112.771C190.038 112.696 190.038 112.584 190.038 112.435C190.075 112.248 190.094 112.061 190.094 111.874C190.094 111.687 190.094 111.482 190.094 111.258C190.132 111.033 190.15 110.79 190.15 110.529C190.188 110.23 190.207 109.949 190.207 109.688C190.207 109.389 190.225 109.071 190.263 108.735C190.263 108.398 190.263 108.062 190.263 107.726C190.3 107.389 190.319 107.015 190.319 106.604C190.319 106.231 190.319 105.857 190.319 105.483C190.357 105.072 190.375 104.661 190.375 104.25V103.016C190.375 102.717 190.394 102.512 190.432 102.4V96.5128ZM199.713 88.2715C199.713 87.7856 199.695 87.1876 199.657 86.4775C199.62 85.7674 199.488 85.0946 199.263 84.4592C199.038 83.8238 198.682 83.2819 198.195 82.8334C197.745 82.3475 197.07 82.1046 196.17 82.1046H194.144C193.732 82.1419 193.376 82.3101 193.076 82.6091C192.776 82.9081 192.626 83.2632 192.626 83.6743V96.2886C192.626 96.6997 192.776 97.0548 193.076 97.3538C193.376 97.6528 193.732 97.8023 194.144 97.8023H196.17C197.07 97.8023 197.745 97.578 198.195 97.1295C198.682 96.681 199.038 96.1391 199.263 95.5037C199.488 94.8309 199.62 94.1582 199.657 93.4854C199.695 92.7753 199.713 92.1773 199.713 91.6914V88.2715ZM203.482 118.994C203.482 118.994 203.464 118.976 203.426 118.938L203.37 118.882C203.332 118.807 203.295 118.733 203.257 118.658C203.257 118.583 203.22 118.508 203.145 118.434C203.107 118.321 203.07 118.209 203.032 118.097C202.995 117.948 202.957 117.78 202.92 117.593C202.845 117.219 202.807 116.864 202.807 116.527C202.77 116.341 202.751 116.154 202.751 115.967C202.751 115.743 202.751 115.5 202.751 115.238V112.267C202.751 112.005 202.751 111.743 202.751 111.482C202.751 111.22 202.77 110.94 202.807 110.641C202.807 110.379 202.807 110.118 202.807 109.856C202.807 109.594 202.789 109.333 202.751 109.071V108.286C202.751 107.912 202.732 107.651 202.695 107.501C202.695 107.24 202.676 106.997 202.639 106.772C202.639 106.511 202.62 106.268 202.582 106.044C202.507 105.52 202.432 105.072 202.357 104.698C202.32 104.511 202.282 104.343 202.245 104.194C202.207 104.007 202.151 103.82 202.076 103.633C202.001 103.446 201.945 103.297 201.907 103.184C201.87 103.072 201.814 102.96 201.739 102.848C201.664 102.736 201.607 102.642 201.57 102.568C201.532 102.493 201.495 102.418 201.457 102.343C201.42 102.343 201.382 102.325 201.345 102.287C201.307 102.287 201.289 102.269 201.289 102.231L201.345 102.287C201.345 102.325 201.364 102.362 201.401 102.4C201.401 102.437 201.401 102.474 201.401 102.512C201.439 102.512 201.457 102.549 201.457 102.624C201.495 102.661 201.514 102.699 201.514 102.736C201.514 102.773 201.532 102.829 201.57 102.904C201.607 103.054 201.664 103.315 201.739 103.689C201.776 103.876 201.795 104.063 201.795 104.25C201.832 104.436 201.87 104.623 201.907 104.81C201.907 104.997 201.907 105.203 201.907 105.427C201.945 105.614 201.964 105.838 201.964 106.1V113.052C201.964 113.201 201.964 113.332 201.964 113.444C202.001 113.556 202.02 113.687 202.02 113.836C202.02 114.098 202.02 114.36 202.02 114.621C202.057 114.846 202.095 115.07 202.132 115.294C202.17 115.518 202.189 115.743 202.189 115.967C202.226 116.191 202.264 116.397 202.301 116.584C202.376 116.808 202.432 117.013 202.47 117.2C202.507 117.35 202.564 117.518 202.639 117.705C202.714 117.892 202.77 118.041 202.807 118.153C202.845 118.265 202.901 118.378 202.976 118.49L203.089 118.602C203.126 118.639 203.145 118.677 203.145 118.714C203.145 118.714 203.164 118.733 203.201 118.77L203.426 118.994H203.482Z" fill="#F4EDE8"/>
<path d="M219.947 97.0254C221.611 97.0254 222.961 98.3701 222.961 100.029C222.961 101.688 221.611 103.032 219.947 103.032C218.283 103.032 216.933 101.688 216.933 100.029C216.933 98.3701 218.283 97.0254 219.947 97.0254Z" fill="#999591"/>
<path d="M28.0857 97.0254C29.75 97.0254 31.0992 98.3701 31.0992 100.029C31.0992 101.688 29.75 103.032 28.0857 103.032C26.4214 103.032 25.0722 101.688 25.0722 100.029C25.0722 98.3701 26.4214 97.0254 28.0857 97.0254Z" fill="#999591"/>
</svg>
